<svg xmlns="http://www.w3.org/2000/svg" viewBox="0 0 49.23 49.23"><defs><style>.a{fill:#fff;}</style></defs><path class="a" d="M24.61,0A24.62,24.62,0,1,0,49.23,24.61,24.64,24.64,0,0,0,24.61,0Zm19,37-1.46-1c-.11.17-.22.35-.34.52l1.46,1a23.83,23.83,0,0,1-2.44,3l-1.23-1.24-1.4-1.4-.44.44,1.4,1.4,1.24,1.23a22.64,22.64,0,0,1-31.63,0L10,39.63l1.4-1.4L11,37.79l-1.4,1.4L8.36,40.43a23.75,23.75,0,0,1-2.43-3l1.46-1L7,36,5.59,37a22.62,22.62,0,0,1-1.85-3.43l1.63-.67L7.2,32.1c-.08-.19-.16-.39-.23-.58l-1.83.75-1.63.67a23,23,0,0,1-1.13-3.79l1.73-.33c0-.2-.08-.41-.11-.61l-1.73.33a22.77,22.77,0,0,1-.34-3.62H5.67c0-.1,0-.2,0-.31s0-.2,0-.31H1.93a22.53,22.53,0,0,1,.34-3.61L4,21c0-.2.07-.41.11-.61l-1.73-.33a22.9,22.9,0,0,1,1.13-3.78L5.14,17,7,17.7c.07-.19.15-.38.23-.57l-1.83-.75-1.63-.67a23.22,23.22,0,0,1,1.85-3.44l1.45,1c.11-.18.23-.35.35-.52l-1.46-1a22.38,22.38,0,0,1,2.43-3L9.6,10l1.4,1.4.44-.44L10,9.6,8.8,8.36a23.22,23.22,0,0,1,3-2.44l1,1.46L13.26,7l-1-1.45a22.8,22.8,0,0,1,3.3-1.78l.68,1.62L17,7.25,17.59,7l-.76-1.83-.68-1.62a23.1,23.1,0,0,1,3.6-1.11l.35,1.72.61-.12-.35-1.72a22.3,22.3,0,0,1,3.94-.4V5.67h.62V1.93a22.32,22.32,0,0,1,3.95.4l-.36,1.72.61.12.36-1.72a22.66,22.66,0,0,1,3.59,1.11L32.4,5.18,31.63,7l.58.24L33,5.42l.68-1.62a22.18,22.18,0,0,1,3.29,1.78L36,7l.52.35,1-1.46a23.22,23.22,0,0,1,3,2.44L39.19,9.6,37.79,11l.44.44,1.4-1.4L40.86,8.8a22.45,22.45,0,0,1,2.44,3l-1.46,1c.12.17.23.34.34.52l1.46-1a22.27,22.27,0,0,1,1.84,3.44l-1.62.67L42,17.13c.09.19.16.38.24.57L44.09,17l1.62-.66a22,22,0,0,1,1.14,3.78l-1.73.33c0,.2.07.41.11.61L47,20.69a23.74,23.74,0,0,1,.34,3.61H43.55c0,.11,0,.21,0,.31s0,.21,0,.31H47.3A24,24,0,0,1,47,28.54l-1.73-.33c0,.2-.07.41-.11.61l1.73.33a22.11,22.11,0,0,1-1.14,3.79l-1.62-.67-1.83-.75c-.08.19-.15.39-.24.58l1.84.75,1.62.67A21.72,21.72,0,0,1,43.64,37Z"/><path class="a" d="M37.22,26.69c0,.2-.07.41-.11.61a13.15,13.15,0,0,1-.56,1.88l3.07,1.26a15.29,15.29,0,0,0,.76-2.52c0-.2.07-.41.1-.61a15.61,15.61,0,0,0,.23-2.39H37.38A12.94,12.94,0,0,1,37.22,26.69Z"/><path class="a" d="M12,22.54a6.17,6.17,0,0,1,.11-.62,12.19,12.19,0,0,1,.56-1.87L9.6,18.79a16.19,16.19,0,0,0-.76,2.51c0,.2-.06.41-.1.62a15.48,15.48,0,0,0-.22,2.38h3.32A14.38,14.38,0,0,1,12,22.54Z"/><path class="a" d="M12.12,27.3c0-.2-.08-.41-.11-.61a14.73,14.73,0,0,1-.17-1.77H8.52a15.61,15.61,0,0,0,.22,2.39c0,.2.06.41.1.61a16.31,16.31,0,0,0,.76,2.52l3.08-1.26A12,12,0,0,1,12.12,27.3Z"/><path class="a" d="M15.94,11.05l-.52.34a16.16,16.16,0,0,0-2,1.62l2.35,2.35a13.89,13.89,0,0,1,1.46-1.2l.52-.34A12.62,12.62,0,0,1,19.4,13L18.12,9.87A15.77,15.77,0,0,0,15.94,11.05Z"/><path class="a" d="M40.38,21.3a15.17,15.17,0,0,0-.76-2.51l-3.07,1.26a13.41,13.41,0,0,1,.56,1.87c0,.2.07.41.11.62a12.65,12.65,0,0,1,.16,1.76h3.33a15.48,15.48,0,0,0-.23-2.38C40.45,21.71,40.42,21.5,40.38,21.3Z"/><path class="a" d="M27.48,12.16a13,13,0,0,1,1.77.55l1.29-3.07a16.15,16.15,0,0,0-2.39-.74l-.61-.12a16,16,0,0,0-2.62-.27v3.33a12.64,12.64,0,0,1,2,.2Z"/><path class="a" d="M13.82,31.45a13.18,13.18,0,0,1-.91-1.7h0L9.83,31h0a17.81,17.81,0,0,0,1.22,2.28l.35.52A16,16,0,0,0,13,35.74l2.3-2.42A14.2,14.2,0,0,1,14.16,32Z"/><path class="a" d="M13,13.45a15.12,15.12,0,0,0-1.61,2l-.35.52a16.57,16.57,0,0,0-1.22,2.28h0l3.08,1.26h0a13.06,13.06,0,0,1,.91-1.69c.11-.18.23-.35.34-.52a14.11,14.11,0,0,1,1.2-1.46h0L13,13.45Z"/><path class="a" d="M20,12.71a13.44,13.44,0,0,1,1.77-.55l.61-.12a12.64,12.64,0,0,1,1.95-.2V8.51a16.16,16.16,0,0,0-2.62.27l-.61.12a16,16,0,0,0-2.38.74h0L20,12.71Z"/><path class="a" d="M33.86,15.8a10.3,10.3,0,0,1,.81.94l2.95-1.62a17.42,17.42,0,0,0-1.4-1.67h0L33.86,15.8Z"/><path class="a" d="M36.32,19.47l3.08-1.26h0c-.19-.44-.4-.87-.62-1.28l-2.73,2,.27.54Z"/><path class="a" d="M29.83,13a11.87,11.87,0,0,1,1.61.87l.52.34a12.1,12.1,0,0,1,1.46,1.2L35.78,13a17,17,0,0,0-2-1.62l-.52-.34a15.77,15.77,0,0,0-2.18-1.18h0L29.83,13Z"/><path class="a" d="M36.32,29.75a12.12,12.12,0,0,1-.92,1.7c-.11.17-.22.35-.34.52a11.84,11.84,0,0,1-1.2,1.45h0l2.36,2.36h0a17.85,17.85,0,0,0,1.61-2c.12-.17.23-.35.34-.52A16.71,16.71,0,0,0,39.4,31h0l-3.08-1.27Z"/><path class="a" d="M41.49,13.77a.22.22,0,0,0-.11,0h0l-.86.47L38,15.63,35.3,17.1l-.25.14-5.8,3.17h0L28,21.09l-.71.38h0l-.36.2-.78.43L26,22l0,0-.24-.11-.24-.08h-.05l-.09,0-.1,0-.35,0h0a1.81,1.81,0,0,0-.23,0l-.34,0h0a2.38,2.38,0,0,0-.53.11h-.05l-.17.05h0l0,0a2.53,2.53,0,0,0-.23.12l0,0-.21.11a0,0,0,0,0,0,0c-.08.05-.14.11-.21.16h0l0,0-.16.13-.12.12-.11.13,0,0h0a1.34,1.34,0,0,0-.11.14,1.7,1.7,0,0,0-.15.22l-.06.1v0a1.09,1.09,0,0,0-.08.15l-.12.28,0,.1v0h0a3.12,3.12,0,0,0-.11.53v.06a4.1,4.1,0,0,0,0,.5h0l-.08.05-1.34.86-.47.3.11.18h0l.34.53h0l.2.31.33.52.2.31.34.54.07.11,1.84-1.17.07,0a2.66,2.66,0,0,0,.53.21,3,3,0,0,0,.59.13l.32,0,.3,0a3.19,3.19,0,0,0,.6-.12,3.53,3.53,0,0,0,.57-.25l.16-.09a2.42,2.42,0,0,0,.31-.25h0a2.91,2.91,0,0,0,.43-.43h0a3.84,3.84,0,0,0,.32-.5h0a3.54,3.54,0,0,0,.22-.57h0c0-.05,0-.09,0-.13s0-.06,0-.08,0-.23,0-.35a.43.43,0,0,0,0-.05v0a2.54,2.54,0,0,0,0-.48h0l0,0,.07-.05,1.09-.8.83-.61h0l2.06-1.52h0l4.08-3,2.68-2,2.31-1.69.79-.59A.19.19,0,0,0,41.49,13.77ZM23.26,26.4h0a2.91,2.91,0,0,1-.31-.3L22.84,26l-.07-.08c0-.05,0-.09-.07-.14a.8.8,0,0,1-.08-.16,1.84,1.84,0,0,1-.09-.25c0-.05,0-.11-.05-.17h0l0-.23v0a1.23,1.23,0,0,1,0-.19c0-.06,0-.13,0-.19l0-.22a1.6,1.6,0,0,1,.05-.21h0l.06-.18a2.14,2.14,0,0,1,.1-.22l.09-.17h0l.13-.18h0c.05-.05.09-.11.14-.15a1.06,1.06,0,0,1,.15-.15l.16-.13h0l.09-.06a.2.2,0,0,1,.08,0l.2-.09.17-.08.21-.06.2,0a1.38,1.38,0,0,1,.2,0l.11,0,.12,0,.19,0a1,1,0,0,1,.17,0h0l.11,0,.1,0,.18.06.18.11.18.1h0L26,23l.16.14.12.16h0a2.09,2.09,0,0,1,.14.17h0l.09.17a2.14,2.14,0,0,1,.1.22,1.27,1.27,0,0,1,.06.18l.06.21a1.62,1.62,0,0,1,0,.22,1.23,1.23,0,0,1,0,.19c0,.07,0,.14,0,.21a.22.22,0,0,0,0,.08c0,.05,0,.1,0,.15h0c0,.06,0,.11-.05.16a2,2,0,0,1-.09.26,1.19,1.19,0,0,1-.09.15,1.67,1.67,0,0,1-.12.23h0l-.12.14a2.27,2.27,0,0,1-.32.3l-.17.13,0,0a2.16,2.16,0,0,1-.57.24l-.27.06a2.15,2.15,0,0,1-.62,0L24,26.79a2.08,2.08,0,0,1-.53-.23.05.05,0,0,1,0,0Z"/><path class="a" d="M23.65,24.92a.76.76,0,0,0,.06.16v0a.76.76,0,0,0,.09.18l.13.13v0l.17.12.18.08.1,0h.32l.2-.05a.64.64,0,0,0,.19-.08l.07,0,.09-.08v0a.86.86,0,0,0,.14-.13,1,1,0,0,0,.09-.18v0s.05-.1.07-.16h0v0c0-.05,0-.1,0-.15v-.06a.65.65,0,0,0,0-.14h0s0,0,0-.06a.61.61,0,0,0-.05-.12.14.14,0,0,0,0-.06,1.17,1.17,0,0,0-.05-.11s0,0,0-.05a.76.76,0,0,0-.09-.09L25.31,24h0s0,0-.07-.07l-.06-.06-.09,0-.09,0-.08,0-.08,0h0a.21.21,0,0,0-.08,0,.27.27,0,0,0-.09,0,.27.27,0,0,0-.09,0h-.09l-.09,0-.09,0-.08,0h0l-.09,0h0l-.05,0s0,.05-.06.06h0l-.07.07-.06.06a.34.34,0,0,0-.08.09s0,0,0,.05h0l-.05.11,0,.06s0,.07-.05.11h0v.26a.75.75,0,0,0,0,.15Z"/></svg>