<svg xmlns="http://www.w3.org/2000/svg" viewBox="0 0 43.56 45.51"><defs><style>.a{isolation:isolate;}.b,.d{fill:#fff;}.c{opacity:0.62;}.d{mix-blend-mode:overlay;opacity:0.5;}</style></defs><g class="a"><path class="b" d="M29.93,1A11.3,11.3,0,0,1,41.19,12.26V17H34.55V12.26a4.62,4.62,0,0,0-9.24,0V24.59H18.67V12.26A11.29,11.29,0,0,1,29.93,1m0-1A12.27,12.27,0,0,0,17.67,12.26V25.59h8.64V12.26a3.62,3.62,0,0,1,7.24,0V18h8.64V12.26A12.27,12.27,0,0,0,29.93,0Z"/><rect class="b" x="32.73" y="16.62" width="9.81" height="1.08"/><rect class="b" x="31.57" y="17.58" width="11.99" height="3.11" rx="0.69"/><path class="b" d="M9.32,10.5v23h0a4.66,4.66,0,0,0,1.36,3,4.62,4.62,0,0,0,7.88-3.26V25.89H25.2v7.36a11.26,11.26,0,0,1-22.52.28h0v-23H9.32m1-1H1.68V33.44h0v.07l0,1h0a12.35,12.35,0,0,0,12.2,11A12.29,12.29,0,0,0,26.2,33.25V24.89H17.56v8.36a3.62,3.62,0,0,1-7.24.17V9.5Z"/><rect class="b" x="1.02" y="9.58" width="9.81" height="1.08"/><rect class="b" y="6.59" width="11.99" height="3.11" rx="0.69"/><rect class="b" x="17.12" y="22.65" width="9.81" height="1.08"/><rect class="b" x="17.12" y="26.46" width="9.81" height="1.08"/><rect class="b" x="15.96" y="23.61" width="11.99" height="3.11" rx="0.69"/><g class="c"><path class="b" d="M39.52,15.06h0a.48.48,0,0,0,.48-.47,18.2,18.2,0,0,0-1.06-7.27,9.69,9.69,0,0,0-6.12-5C27.07.53,21.77,4.46,20.22,10c-.66,2.37-.48,4.91-.48,7.35v3.4a.48.48,0,0,0,.42.49.46.46,0,0,0,.51-.46V14.85c0-.76,0-1.53,0-2.28A11.26,11.26,0,0,1,25,4.42a8.71,8.71,0,0,1,9.2-.59,8.71,8.71,0,0,1,3.51,3.08,10,10,0,0,1,1.18,4.39c.11,1.09.17,2.18.18,3.28A.48.48,0,0,0,39.52,15.06Z"/><path class="b" d="M20.21,28.94a.46.46,0,0,0-.46.47c0,1.75.05,3.5,0,5.24a4.34,4.34,0,0,1-.38,1.4,5.29,5.29,0,0,1-3.75,3c-2.11.49-4.7.22-6.17-1.54a6,6,0,0,1-1.28-3.26c-.12-1.45,0-2.94,0-4.39V11.54a.47.47,0,0,0-.93,0V27.63c0,2.09,0,4.18,0,6.27a6.53,6.53,0,0,0,2.66,5.25c3.05,2.07,8.12,1.16,10-2.07a6.78,6.78,0,0,0,.79-3.81V29.4a.46.46,0,0,0-.46-.46Z"/></g><path class="d" d="M20.23,26.31h0a.49.49,0,0,1-.49-.48V24.49a.49.49,0,0,1,.49-.49h0a.49.49,0,0,1,.48.49v1.34A.49.49,0,0,1,20.23,26.31Z"/><path class="d" d="M39.5,20.31h0a.48.48,0,0,1-.49-.48V18.49A.48.48,0,0,1,39.5,18h0a.48.48,0,0,1,.48.48v1.34A.48.48,0,0,1,39.5,20.31Z"/><path class="b" d="M36.4,23s-5.52,9.58,0,9.58S36.4,23,36.4,23Z"/><path class="b" d="M35,27.64s0,.09,0,.23,0,.35,0,.59v.81c0,.14,0,.29,0,.44s0,.29,0,.43a2.65,2.65,0,0,0,.06.42,2.9,2.9,0,0,0,.11.38,2.53,2.53,0,0,0,.16.33,1.89,1.89,0,0,0,.2.27l.22.2a2.07,2.07,0,0,1,.2.15l.2.12L36,32a1,1,0,0,1-.28,0l-.17,0a.89.89,0,0,1-.19-.07,1.9,1.9,0,0,1-.38-.25l-.17-.18a1.7,1.7,0,0,1-.15-.22,1,1,0,0,1-.12-.23,2.77,2.77,0,0,1-.1-.26,3.21,3.21,0,0,1-.11-.52,3.81,3.81,0,0,1,0-1,4.32,4.32,0,0,1,.23-.83,4.55,4.55,0,0,1,.28-.55Z"/></g></svg>