<svg xmlns="http://www.w3.org/2000/svg" width="37.848" height="33.117" viewBox="0 0 37.848 33.117">
  <path id="a3" d="M67.557,287.165V260.3l-5.414-3.732L51.1,260.3v2.173H42.946a5.388,5.388,0,0,0-5.387,5.387v4.4h1.262v-3.6h7.7a1.569,1.569,0,0,1,1.568,1.568v2.036h1.262v-2.036a2.829,2.829,0,0,0-2.83-2.829H38.849a4.12,4.12,0,0,1,4.1-3.662H51.1v9.814c-.379-.489-.761-.923-1.1-1.287H47.442c-1.369,1.45-3.347,4.019-3.347,6.769v.07H42.816v-.07c0-2.75-1.978-5.319-3.347-6.769H36.911c-1.369,1.45-3.347,4.019-3.347,6.769v.07h-.885v1.726h.885V284.1h-.885v1.726h.885v1.341H31.076v2.523H68.924v-2.523Zm-23.462,0H42.816v-1.341H44.1Zm0-3.067H42.816V280.83H44.1Zm11.9,2.922H53.1v-8.5h2.892Zm0-12.458H53.1v-2.891h2.892Zm0-4.547H53.1v-2.891h2.892Zm0-4.547H53.1v-2.891h2.892Zm4.783,21.552H57.885v-8.5h2.891Zm0-12.458H57.885v-2.891h2.891Zm0-4.547H57.885v-2.891h2.891Zm0-4.547H57.885v-2.891h2.891ZM65.56,287.02H62.669v-8.5H65.56Zm0-12.458H62.669v-2.891H65.56Zm0-4.547H62.669v-2.891H65.56Zm0-4.547H62.669v-2.891H65.56Z" transform="translate(-31.076 -256.571)" fill="#fff"/>
</svg>
