<svg xmlns="http://www.w3.org/2000/svg" width="48.341" height="41.72" viewBox="0 0 48.341 41.72">
  <g id="a4" transform="translate(-25.829 -331.259)">
    <path id="路径_2" data-name="路径 2" d="M33.631,337.066c-2.318,1.4-7.727,4.674-7.8,9.357-.058,3.707,3.244,7.085,3.828,7.683,1.731,1.771,3.037,2.168,4.645,3.186,5.154,3.263,5.5,7.909,8.273,11.058,4.947,5.629,18.05,6.968,25.855-.783s6.9-21.173,1.783-28.669C61.614,326.292,42.1,331.941,33.631,337.066Z" fill="#fff" opacity="0.53"/>
    <path id="路径_3" data-name="路径 3" d="M42.1,338.966c-1.841.656-6.136,2.186-6.729,5.36-.47,2.511,1.533,5.231,1.887,5.712a14.342,14.342,0,0,0,3,2.761c3.357,2.879,3.075,6.082,4.718,8.577,2.935,4.46,12.273,7.051,18.82,2.784s7.437-13.506,4.6-19.256C63.609,335.233,48.824,336.57,42.1,338.966Z" fill="#fff" opacity="0.53"/>
    <path id="路径_4" data-name="路径 4" d="M49.412,344.3c-.985.438-3.283,1.46-3.806,3.52a5.933,5.933,0,0,0,.566,3.687,6.981,6.981,0,0,0,1.338,1.767c1.513,1.84,1.147,3.917,1.812,5.522,1.187,2.868,5.771,4.479,9.408,1.668s4.732-8.8,3.682-12.507C60.647,341.73,53.011,342.7,49.412,344.3Z" fill="#fff"/>
  </g>
</svg>
