<svg xmlns="http://www.w3.org/2000/svg" width="50" height="29.645" viewBox="0 0 50 29.645">
  <g id="a5" transform="translate(-25 -416.285)">
    <path id="路径_5" data-name="路径 5" d="M74.214,440.656H71.647a.786.786,0,1,1,0-1.572H73.3l-1.124-7.3-4.142-1.021a.785.785,0,0,1-.547-.485L65.179,424.2H61.793V439.87a.786.786,0,0,1-.786.786H56.342a.786.786,0,1,1,0-1.572h3.879V423.413a.786.786,0,0,1,.786-.786h4.714a.786.786,0,0,1,.735.507l2.352,6.2,4.25,1.048a.785.785,0,0,1,.589.643l1.344,8.727a.787.787,0,0,1-.777.906Z" fill="#fff"/>
    <path id="路径_6" data-name="路径 6" d="M33.881,441.914h-2.36a.787.787,0,0,1-.5-.181l-5.735-4.758A.785.785,0,0,1,25,436.37v-7.454a.786.786,0,0,1,.259-.583l11.2-10.116a.787.787,0,0,1,.527-.2h4.682a.786.786,0,0,1,0,1.573h-4.38l-10.715,9.679V436l5.233,4.341h1.553l7.7-18.406a.786.786,0,0,1,1.451.607l-7.9,18.888A.787.787,0,0,1,33.881,441.914Z" fill="#fff"/>
    <path id="路径_7" data-name="路径 7" d="M48.166,419.587H44.5a.786.786,0,0,1,0-1.573h3.669a.786.786,0,0,1,0,1.573Z" fill="#fff"/>
    <path id="路径_8" data-name="路径 8" d="M54.56,419.587H51.1a.786.786,0,0,1,0-1.573H54.56a.786.786,0,1,1,0,1.573Z" fill="#fff"/>
    <path id="路径_9" data-name="路径 9" d="M61.007,424.251a.786.786,0,0,1-.786-.786v-3.878h-2.83a.786.786,0,1,1,0-1.573h3.616a.786.786,0,0,1,.786.787v4.664A.786.786,0,0,1,61.007,424.251Z" fill="#fff"/>
    <path id="路径_10" data-name="路径 10" d="M67.61,445.93a4.8,4.8,0,1,1,4.8-4.8A4.807,4.807,0,0,1,67.61,445.93Zm0-8.032a3.23,3.23,0,1,0,3.23,3.23A3.233,3.233,0,0,0,67.61,437.9Z" fill="#fff"/>
    <path id="路径_11" data-name="路径 11" d="M41,445.93a4.8,4.8,0,1,1,4.8-4.8A4.807,4.807,0,0,1,41,445.93Zm0-8.032a3.23,3.23,0,1,0,3.229,3.23A3.234,3.234,0,0,0,41,437.9Z" fill="#fff"/>
    <circle id="椭圆_1" data-name="椭圆 1" cx="1.065" cy="1.065" r="1.065" transform="translate(39.936 440.063)" fill="#fff"/>
    <circle id="椭圆_2" data-name="椭圆 2" cx="1.065" cy="1.065" r="1.065" transform="translate(48.944 440.063)" fill="#fff"/>
    <circle id="椭圆_3" data-name="椭圆 3" cx="1.065" cy="1.065" r="1.065" transform="translate(66.546 440.063)" fill="#fff"/>
    <path id="路径_12" data-name="路径 12" d="M50.009,445.93a4.8,4.8,0,1,1,4.8-4.8A4.807,4.807,0,0,1,50.009,445.93Zm0-8.032a3.23,3.23,0,1,0,3.23,3.23A3.234,3.234,0,0,0,50.009,437.9Z" fill="#fff"/>
    <path id="路径_13" data-name="路径 13" d="M34.12,435.1H26.153a.786.786,0,0,1,0-1.573H34.12a.786.786,0,0,1,0,1.573Z" fill="#fff"/>
    <path id="路径_14" data-name="路径 14" d="M36.007,430.069H26.153a.786.786,0,1,1,0-1.572h9.854a.786.786,0,1,1,0,1.572Z" fill="#fff"/>
    <path id="路径_15" data-name="路径 15" d="M54.718,437.145a.786.786,0,0,1-.787-.786V417.071a.787.787,0,0,1,1.573,0v19.288A.786.786,0,0,1,54.718,437.145Z" fill="#fff"/>
    <path id="路径_16" data-name="路径 16" d="M48.323,435.468a.786.786,0,0,1-.786-.787v-17.61a.787.787,0,0,1,1.573,0v17.61A.787.787,0,0,1,48.323,435.468Z" fill="#fff"/>
    <path id="路径_17" data-name="路径 17" d="M41.824,435.468a.786.786,0,0,1-.786-.787v-17.61a.786.786,0,1,1,1.572,0v17.61A.786.786,0,0,1,41.824,435.468Z" fill="#fff"/>
    <path id="路径_18" data-name="路径 18" d="M72.948,434.523H71.332a2.191,2.191,0,0,1-2.166-1.829l-.07-.413a.524.524,0,0,1,1.034-.175l.07.413a1.145,1.145,0,0,0,1.132.956h1.616a.524.524,0,1,1,0,1.048Z" fill="#fff"/>
    <path id="路径_19" data-name="路径 19" d="M68.188,430.8h-4.98a.786.786,0,0,1-.786-.786V423.78a.786.786,0,1,1,1.573,0v5.451h4.193a.786.786,0,0,1,0,1.572Z" fill="#fff"/>
  </g>
</svg>
