<svg xmlns="http://www.w3.org/2000/svg" width="32.226" height="44.51" viewBox="0 0 32.226 44.51">
  <g id="a6" transform="translate(-33.887 -486.745)">
    <path id="路径_20" data-name="路径 20" d="M60.4,531.255H38.183a.759.759,0,0,1,0-1.518,2.78,2.78,0,0,0,2.777-2.777v-3.537a.759.759,0,0,1,.759-.759H64.328a.759.759,0,0,1,.759.759v3.141A4.7,4.7,0,0,1,60.4,531.255Zm-18.937-1.518H60.4a3.178,3.178,0,0,0,3.174-3.173v-2.382H42.479v2.778A4.282,4.282,0,0,1,41.458,529.737Z" fill="#fff"/>
    <path id="路径_21" data-name="路径 21" d="M38.183,531.255a4.3,4.3,0,0,1-4.3-4.295V496.293a.759.759,0,0,1,.76-.759h9.026a.76.76,0,0,1,0,1.519H35.406V526.96a2.777,2.777,0,0,0,5.554,0v-3.537a.759.759,0,0,1,.759-.759H57.446v-3.875a.759.759,0,1,1,1.518,0v4.634a.759.759,0,0,1-.759.759H42.479v2.778A4.3,4.3,0,0,1,38.183,531.255Z" fill="#fff"/>
    <path id="路径_22" data-name="路径 22" d="M56.817,519.548H49.2a.759.759,0,0,1-.759-.759V507.7H46.426a.759.759,0,0,1-.759-.759V498.6a4.331,4.331,0,0,1,4.326-4.326H56.02a4.332,4.332,0,0,1,4.327,4.326v8.348a.759.759,0,0,1-.759.759H57.576v11.087A.759.759,0,0,1,56.817,519.548Zm-6.861-1.519h6.1V506.943a.759.759,0,0,1,.76-.759h2.012V498.6a2.812,2.812,0,0,0-2.809-2.808H49.993a2.812,2.812,0,0,0-2.808,2.808v7.589H49.2a.759.759,0,0,1,.759.759Z" fill="#fff"/>
    <path id="路径_23" data-name="路径 23" d="M53.007,519.548a.759.759,0,0,1-.759-.759v-9.974a.759.759,0,1,1,1.518,0v9.974A.759.759,0,0,1,53.007,519.548Z" fill="#fff"/>
    <path id="路径_24" data-name="路径 24" d="M49.2,507.7a.759.759,0,0,1-.759-.76V499.5a.759.759,0,1,1,1.518,0v7.442A.759.759,0,0,1,49.2,507.7Z" fill="#fff"/>
    <path id="路径_25" data-name="路径 25" d="M56.817,507.7a.76.76,0,0,1-.76-.76V499.5a.76.76,0,0,1,1.519,0v7.442A.759.759,0,0,1,56.817,507.7Z" fill="#fff"/>
    <path id="路径_26" data-name="路径 26" d="M53.083,494a2.963,2.963,0,0,1-2.61-1.874,5.753,5.753,0,0,1-.637-2.687v-.824a.753.753,0,0,1,.111-.395,4.265,4.265,0,0,1,3.218-1.472c1.63,0,3.354,1,3.354,1.939v.752a5.768,5.768,0,0,1-.637,2.687A2.955,2.955,0,0,1,53.156,494Zm-1.728-5.081v.52a4.241,4.241,0,0,0,.46,1.977c.382.722.842,1.11,1.341,1.065.529.045,1-.343,1.384-1.065a4.241,4.241,0,0,0,.46-1.977v-.548a3.059,3.059,0,0,0-1.835-.625A3.116,3.116,0,0,0,51.355,488.916Z" fill="#fff"/>
    <path id="路径_27" data-name="路径 27" d="M65.353,519.548H38.732a.759.759,0,0,1,0-1.519H65.353a.759.759,0,1,1,0,1.519Z" fill="#fff"/>
    <path id="路径_28" data-name="路径 28" d="M61.662,502.478a.759.759,0,0,1-.471-1.354L64,498.9a.759.759,0,0,1,.941,1.191l-2.808,2.218A.75.75,0,0,1,61.662,502.478Z" fill="#fff"/>
    <path id="路径_29" data-name="路径 29" d="M44.351,502.478a.75.75,0,0,1-.47-.164L41.073,500.1a.759.759,0,1,1,.942-1.191l2.807,2.219a.759.759,0,0,1-.471,1.354Z" fill="#fff"/>
    <path id="路径_30" data-name="路径 30" d="M45.245,515.194H38.732a.759.759,0,0,1,0-1.519h6.513a.759.759,0,0,1,0,1.519Z" fill="#fff"/>
    <path id="路径_31" data-name="路径 31" d="M45.245,511.059H38.732a.759.759,0,0,1,0-1.518h6.513a.759.759,0,1,1,0,1.518Z" fill="#fff"/>
  </g>
</svg>
