<svg xmlns="http://www.w3.org/2000/svg" width="38.418" height="41.605" viewBox="0 0 38.418 41.605">
  <g id="a7" transform="translate(-2084.791 -821.048)">
    <g id="组_4" data-name="组 4" transform="translate(2054 254.429)">
      <path id="路径_32" data-name="路径 32" d="M56.691,571.694a6.4,6.4,0,0,0-.33-.817,6.984,6.984,0,0,0-13.383,2.066v.869c0,.037.011.363.029.527.254,2.028,1.857,4.185,3.052,6.215,1.286,2.175,2.621,4.314,3.944,6.452.816-1.4,1.629-2.809,2.426-4.169.218-.4.47-.8.686-1.177.146-.255.423-.507.549-.743,1.287-2.356,3.358-4.73,3.358-7.068v-.96a7.266,7.266,0,0,0-.331-1.2Zm-6.73,4.366a2.492,2.492,0,0,1-2.386-1.7,2.36,2.36,0,0,1-.067-.635v-.562a2.36,2.36,0,0,1,2.532-2.319,2.566,2.566,0,0,1,2.57,2.61,2.632,2.632,0,0,1-2.649,2.609Zm0,0" fill="#fff"/>
    </g>
    <g id="组_6" data-name="组 6" transform="translate(2054 254.429)">
      <g id="组_5" data-name="组 5">
        <path id="路径_33" data-name="路径 33" d="M33.273,608.077a.631.631,0,0,1-.195-.031.64.64,0,0,1-.416-.8l1.147-3.608a.641.641,0,0,1,.8-.419l6.075,1.832,2.107-.761v-1.7a.639.639,0,0,1,.415-.6l2.6-.978a.647.647,0,0,1,.387-.02l1.413.367,1.285-2.285a.64.64,0,0,1,.558-.327H53.8a.638.638,0,0,1,.515.261l2.611,3.54,2.374,1.707,3.239-.077a.642.642,0,0,1,.481.2l2.385,2.533a.641.641,0,0,1-.933.878l-2.188-2.325-3.168.076a.637.637,0,0,1-.389-.121L56.1,603.53a.651.651,0,0,1-.141-.141l-2.478-3.361H49.82l-1.343,2.389a.641.641,0,0,1-.719.306l-1.695-.44-2,.75v1.7a.64.64,0,0,1-.423.6l-2.729.985a.639.639,0,0,1-.4.011l-5.674-1.711-.955,3.007A.641.641,0,0,1,33.273,608.077Z" fill="#fff"/>
        <path id="路径_34" data-name="路径 34" d="M68.569,608.224H31.431a.641.641,0,0,1,0-1.281H68.569a.641.641,0,0,1,0,1.281Z" fill="#fff"/>
        <path id="路径_35" data-name="路径 35" d="M36.277,603.087a.64.64,0,0,1-.565-.94l1.582-2.98a.639.639,0,0,1,.457-.33l1.774-.3.542-2.16a.64.64,0,0,1,.549-.48l3.838-.436,3.925-1.9a.64.64,0,0,1,.6.02l1.727.987.018.011,3.124,1.923a.64.64,0,1,1-.671,1.09l-3.116-1.917-1.424-.814-3.72,1.8a.624.624,0,0,1-.207.06l-3.506.4-.536,2.135a.641.641,0,0,1-.513.475l-1.874.322-1.434,2.7A.641.641,0,0,1,36.277,603.087Z" fill="#fff"/>
        <path id="路径_36" data-name="路径 36" d="M66.5,608.076a.64.64,0,0,1-.637-.58l-.315-3.352-2.04-1.332a.644.644,0,0,1-.259-.337l-.659-2.023-2.1.258a.642.642,0,0,1-.494-.149L58.52,599.3a.64.64,0,0,1-.17-.747l.857-1.929-1.921-3.465-1.845.362a.637.637,0,0,1-.473-.092l-1.646-1.076-1.117,1.428A.64.64,0,1,1,51.2,593l1.48-1.891a.641.641,0,0,1,.855-.142l1.919,1.256,2.047-.4a.639.639,0,0,1,.683.317l2.3,4.152a.638.638,0,0,1,.025.571l-.792,1.783.9.764,2.345-.287a.64.64,0,0,1,.687.437l.753,2.309L66.5,603.24a.645.645,0,0,1,.288.477l.344,3.659a.642.642,0,0,1-.578.7Z" fill="#fff"/>
        <path id="路径_37" data-name="路径 37" d="M42.126,594.8a.641.641,0,0,1-.516-1.019l1.925-2.631a.644.644,0,0,1,.517-.262h1.5l1.287-1.608a.641.641,0,0,1,.8-.166l2.96,1.558a.64.64,0,1,1-.6,1.133L47.509,590.5l-1.15,1.436a.641.641,0,0,1-.5.24H44.377l-1.733,2.368A.64.64,0,0,1,42.126,594.8Z" fill="#fff"/>
      </g>
    </g>
  </g>
</svg>
