<svg xmlns="http://www.w3.org/2000/svg" width="321.314" height="7.969" viewBox="0 0 321.314 7.969">
  <g id="blue_line" transform="translate(-328.135 -235.161)">
    <path id="路径_833" data-name="路径 833" d="M328.135,235.161l7.969,7.969h7.186l-7.955-7.955Z" fill="#03a6ff"/>
    <path id="路径_834" data-name="路径 834" d="M339.07,235.161l7.969,7.969h7.186l-7.955-7.955Z" fill="#03a6ff"/>
    <path id="路径_835" data-name="路径 835" d="M350,235.161l7.969,7.969h7.186l-7.955-7.955Z" fill="#03a6ff"/>
    <path id="路径_836" data-name="路径 836" d="M360.938,235.161l7.969,7.969h7.186l-7.955-7.955Z" fill="#03a6ff"/>
    <path id="路径_837" data-name="路径 837" d="M371.872,235.161l7.969,7.969h7.186l-7.955-7.955Z" fill="#03a6ff"/>
    <path id="路径_838" data-name="路径 838" d="M382.807,235.161l7.969,7.969h7.186l-7.955-7.955Z" fill="#03a6ff"/>
    <path id="路径_839" data-name="路径 839" d="M393.741,235.161l7.969,7.969H408.9l-7.955-7.955Z" fill="#03a6ff"/>
    <path id="路径_840" data-name="路径 840" d="M404.675,235.161l7.969,7.969h7.186l-7.955-7.955Z" fill="#03a6ff"/>
    <path id="路径_841" data-name="路径 841" d="M415.61,235.161l7.969,7.969h7.186l-7.955-7.955Z" fill="#03a6ff"/>
    <path id="路径_842" data-name="路径 842" d="M426.544,235.161l7.969,7.969H441.7l-7.955-7.955Z" fill="#03a6ff"/>
    <path id="路径_843" data-name="路径 843" d="M437.478,235.161l7.969,7.969h7.186l-7.955-7.955Z" fill="#03a6ff"/>
    <path id="路径_844" data-name="路径 844" d="M448.412,235.161l7.969,7.969h7.186l-7.955-7.955Z" fill="#03a6ff"/>
    <path id="路径_845" data-name="路径 845" d="M459.347,235.161l7.969,7.969H474.5l-7.955-7.955Z" fill="#03a6ff"/>
    <path id="路径_846" data-name="路径 846" d="M470.281,235.161l7.969,7.969h7.186l-7.955-7.955Z" fill="#03a6ff"/>
    <path id="路径_847" data-name="路径 847" d="M481.215,235.161l7.969,7.969h7.186l-7.955-7.955Z" fill="#03a6ff"/>
    <path id="路径_848" data-name="路径 848" d="M492.149,235.161l7.969,7.969H507.3l-7.955-7.955Z" fill="#03a6ff"/>
    <path id="路径_849" data-name="路径 849" d="M503.084,235.161l7.969,7.969h7.186l-7.955-7.955Z" fill="#03a6ff"/>
    <path id="路径_850" data-name="路径 850" d="M514.018,235.161l7.969,7.969h7.186l-7.955-7.955Z" fill="#03a6ff"/>
    <path id="路径_851" data-name="路径 851" d="M524.952,235.161l7.969,7.969h7.186l-7.955-7.955Z" fill="#03a6ff"/>
    <path id="路径_852" data-name="路径 852" d="M535.886,235.161l7.969,7.969h7.186l-7.955-7.955Z" fill="#03a6ff"/>
    <path id="路径_853" data-name="路径 853" d="M546.821,235.161l7.969,7.969h7.186l-7.955-7.955Z" fill="#03a6ff"/>
    <path id="路径_854" data-name="路径 854" d="M557.755,235.161l7.969,7.969h7.186l-7.955-7.955Z" fill="#03a6ff"/>
    <path id="路径_855" data-name="路径 855" d="M568.689,235.161l7.969,7.969h7.186l-7.955-7.955Z" fill="#03a6ff"/>
    <path id="路径_856" data-name="路径 856" d="M579.624,235.161l7.969,7.969h7.186l-7.955-7.955Z" fill="#03a6ff"/>
    <path id="路径_857" data-name="路径 857" d="M590.558,235.161l7.969,7.969h7.186l-7.955-7.955Z" fill="#03a6ff"/>
    <path id="路径_858" data-name="路径 858" d="M601.492,235.161l7.969,7.969h7.186l-7.955-7.955Z" fill="#03a6ff"/>
    <path id="路径_859" data-name="路径 859" d="M612.426,235.161l7.969,7.969h7.186l-7.955-7.955Z" fill="#03a6ff"/>
    <path id="路径_860" data-name="路径 860" d="M623.361,235.161l7.969,7.969h7.186l-7.955-7.955Z" fill="#03a6ff"/>
    <path id="路径_861" data-name="路径 861" d="M634.295,235.161l7.969,7.969h7.186l-7.955-7.955Z" fill="#03a6ff"/>
  </g>
</svg>
