<svg id="3e01219e-e141-4954-bd95-8425a95649e9" data-name="圖層 3" xmlns="http://www.w3.org/2000/svg" width="25.23" height="25.23" viewBox="0 0 25.23 25.23"><title>errorbtn</title><path d="M790.32,4806.52a9.46,9.46,0,1,0-9.46,9.46,9.46,9.46,0,0,0,9.46-9.46h0Zm-9.46,7.09a7.09,7.09,0,1,1,7.09-7.09,7.1,7.1,0,0,1-7.09,7.09h0Zm0,0" transform="translate(-771.4 -4797.06)" fill="#fff"/><path d="M795.93,4818.25l-5.79-5.79a11.13,11.13,0,0,1-3.34,3.34l5.79,5.79a2.36,2.36,0,0,0,3.34-3.34h0Zm0,0" transform="translate(-771.4 -4797.06)" fill="#fff"/></svg>