<svg xmlns="http://www.w3.org/2000/svg" width="72.863" height="72.863" viewBox="0 0 72.863 72.863">
  <g id="icon1" transform="translate(-260.682 -471.866)">
    <path id="路径_908" data-name="路径 908" d="M332.406,544.729a1.138,1.138,0,1,0,0-2.277h-3.565V528.8h-8.82L318.2,517.216l1.612-6.237a1.137,1.137,0,0,0-1.1-1.423H298.664a1.138,1.138,0,0,0-1.1,1.423l1.613,6.245-.865,5.493-2.47-15.673,2.253-8.711a1.139,1.139,0,0,0-1.1-1.424h-27.77a1.14,1.14,0,0,0-1.1,1.424l2.247,8.685-5.575,35.434h-2.969a1.138,1.138,0,1,0,0,2.277Zm-5.842-13.648v11.371h-4.4l-1.789-11.371ZM319.775,541.9l.088.557H301.421l-1.8-11.424h9.065v-2.277h-9.02l.538-3.415h8.482v-2.277h-8.124l.725-4.6h14.8l1.629,10.347h0Zm-2.537-30.062-1.108,4.289H301.242l-1.108-4.289ZM295.52,499.186,293.757,506h-21.3l-1.763-6.815Zm-25.8,26.587H283.1V523.5H270.078l.882-5.607H283.1v-2.277H271.319l1.154-7.334h21.256c5.336,33.9,5.344,33.952,5.37,34.12H267.1Z" fill="#fff"/>
    <path id="路径_909" data-name="路径 909" d="M305.666,501.019a8.906,8.906,0,0,0,8.439-6.08,8.908,8.908,0,0,0-3.363-16.711,9.662,9.662,0,0,0-8.018-4.3,9.5,9.5,0,0,0-1.746.16,9.639,9.639,0,0,0-13.643,1.339,8.52,8.52,0,0,0-6.129,4.975,8.621,8.621,0,0,0-2.04,15.236,1.138,1.138,0,1,0,1.292-1.874,6.345,6.345,0,0,1,1.91-11.341,1.137,1.137,0,0,0,.769-.715,6.255,6.255,0,0,1,4.995-4.11,1.137,1.137,0,0,0,.756-.457,7.362,7.362,0,0,1,10.991-.987,1.135,1.135,0,0,0,1.069.273,7.032,7.032,0,0,1,1.776-.222A7.381,7.381,0,0,1,309.1,479.9a1.137,1.137,0,0,0,.957.57,6.629,6.629,0,0,1,2.625,12.638,1.137,1.137,0,0,0-.625.74,6.623,6.623,0,0,1-6.391,4.9,1.139,1.139,0,1,0,0,2.277Z" fill="#fff"/>
    <path id="路径_910" data-name="路径 910" d="M289.957,483.781a2.414,2.414,0,0,1,1.863.8l.7-.768a3.291,3.291,0,0,0-2.541-1.123,3.358,3.358,0,0,0-3.514,3.407,3.408,3.408,0,0,0,5.962,2.218l-.711-.73a2.322,2.322,0,0,1-4.1-1.53A2.242,2.242,0,0,1,289.957,483.781Z" fill="#fff"/>
    <path id="路径_911" data-name="路径 911" d="M296.659,482.7a3.384,3.384,0,1,0,3.444,3.384A3.337,3.337,0,0,0,296.659,482.7Zm0,5.756a2.373,2.373,0,1,1,2.312-2.372A2.315,2.315,0,0,1,296.659,488.451Z" fill="#fff"/>
    <path id="路径_912" data-name="路径 912" d="M302.766,492.339l-1.994,2v.94h4.495v-1.062h-2.981l1.542-1.571a3.248,3.248,0,0,0,1.233-2.154A1.951,1.951,0,0,0,303,488.549a2.49,2.49,0,0,0-2.3,1.307l.894.517a1.571,1.571,0,0,1,1.345-.827.987.987,0,0,1,1.062.95C304,491.141,303.349,491.746,302.766,492.339Z" fill="#fff"/>
  </g>
</svg>
