<svg xmlns="http://www.w3.org/2000/svg" width="60.191" height="64.329" viewBox="0 0 60.191 64.329">
  <g id="icon4" transform="translate(-884.584 -647.429)">
    <path id="路径_862" data-name="路径 862" d="M885.424,693.728a2.787,2.787,0,0,0,3.524-.2c1.542-1.4,1.977-.233,11.984,2.935a13.892,13.892,0,0,0,1.418,3.031l-6.665,2.825a6.737,6.737,0,0,1-3.959.248c-1.386-.286-2.757,0-3.334,1.3-.781,1.763.986,2.651,1.08,5.194.094,2.418,1.737,2.673,2.242,2.694l.094,0a2.744,2.744,0,0,0,2.618-2.269,2.208,2.208,0,0,1,1.749-1.772c2.425-.661,8.758-3.083,10.565-3.781a14.243,14.243,0,0,0,17.048-1.14c2.332.978,7.122,2.984,9.37,3.591a2.223,2.223,0,0,1,1.756,1.794,2.776,2.776,0,0,0,2.627,2.27l.1,0c.5-.021,2.144-.277,2.24-2.7a6.3,6.3,0,0,1,.8-2.785,2.447,2.447,0,0,0,.275-2.451,2.24,2.24,0,0,0-1.6-1.288,4.119,4.119,0,0,0-1.733.01,6.884,6.884,0,0,1-3.934-.237l-6.326-2.775a14.189,14.189,0,0,0,1.1-3.117c2.211-.712,7.039-2.421,9.222-3.252a2.457,2.457,0,0,1,2.647.378c2.25,1.928,5.98-.295,3.772-3.338-1.577-2.242-.648-5.095-3.466-5.095-2.229,0-2.569,2.585-5.887,3.443l-6.144,1.816-.054-.447c2.73-2.4,6.434-7.1,4.823-11.255a15.083,15.083,0,0,1-.663-2.2c-.009-.044-.012-.093-.021-.137.346-.607,5.364-9.628,2.362-17.436-1.589-4.132-5.116-7.109-10.48-8.85a27.8,27.8,0,0,0-17.088.08c-6.5,2.067-10.7,5.565-12.5,10.4-3.015,8.1,1.732,17.136,2.8,19.01-1.026,4.2-.048,8.053,2.676,10.395-.1.867-.126.925-.207,1.794-5.344-1.876-7.153-1.541-9.325-4.039a4.326,4.326,0,0,0-1.348-1.031,2.23,2.23,0,0,0-.967-.219,2.371,2.371,0,0,0-2.323,2.147c-.007.073-.014.158-.029.253a6.522,6.522,0,0,1-1.014,2.691C884.306,691.56,884.37,692.871,885.424,693.728Zm10.218,12.051a4.215,4.215,0,0,0-3.186,3.314.761.761,0,0,1-.648.655h-.015c-.078,0-.284-.012-.313-.762-.1-2.855-1.454-3.849-1.25-4.3.12-.27.806-.2,1.081-.145a8.75,8.75,0,0,0,5.137-.355l7.121-3.018c.357.426,1.046,1.121,1.288,1.342C901.817,703.667,897.434,705.291,895.642,705.779Zm42.4-2.578c1.007-.208,1.245.166,1.086.443-.069.115-.138.23-.2.352a8.294,8.294,0,0,0-1.051,3.669c-.031.764-.237.772-.31.775-.1,0-.119,0-.018,0a.788.788,0,0,1-.659-.668,4.226,4.226,0,0,0-3.193-3.323c-1.893-.512-5.971-2.189-8.338-3.177.034-.04.062-.085.1-.125a13.932,13.932,0,0,0,.872-1.135c.01-.013.021-.025.03-.038l6.562,2.878A8.831,8.831,0,0,0,938.038,703.2Zm-2.754-14.022c3.217-.831,4.181-2.873,5.2-3.337.907-.4.111,1.553,1.984,4.22.76,1.048-.379,1.028-.824.647a4.472,4.472,0,0,0-4.67-.735c-1.886.718-5.756,2.095-8.159,2.9.037-.531.029-1.48.012-1.786Zm-35.47-10.856v-.006c.005-.019.008-.036.012-.055a11.353,11.353,0,0,0-.3-5.57,11.761,11.761,0,0,1-.266-1.31,18.219,18.219,0,0,0-.361-2.174c-.761-3.237,1.593-5.464-.152-6.055a1.007,1.007,0,0,0-1.274.628,12.659,12.659,0,0,0-.532,5.881,16.51,16.51,0,0,1,.32,1.921,7.428,7.428,0,0,0,.134.806c-3.547-10.289-.437-18.116,10.7-21.658a25.79,25.79,0,0,1,15.858-.084c9.492,3.08,12,10.222,8.628,19.657a12.813,12.813,0,0,0-.329-6.517,1,1,0,0,0-1.906.636,10.389,10.389,0,0,1,.424,4.207,18.672,18.672,0,0,0-.02,6.96,17.163,17.163,0,0,0,.754,2.5c1.189,3.066-2.131,7.259-4.652,9.33a1,1,0,0,0-.36.9c-.013,1.217,1.4,5.163-1.392,9.878a11.84,11.84,0,0,1-2.182,2.7,12.3,12.3,0,0,1-18.236-1.568c-4.4-5.746-1.233-10.79-2.495-11.892l-.264-.219C898.557,684.481,899.327,680.085,899.814,678.323ZM886.9,691.353a8.558,8.558,0,0,0,1.346-3.53c.021-.134.032-.259.044-.385a.327.327,0,0,1,.419-.283,2.261,2.261,0,0,1,.708.546c2.682,3.087,5.05,2.759,10.761,4.792.015.409.106,1.3.166,1.671-8.129-2.672-10.155-4.471-12.746-2.124a.773.773,0,0,1-.916.122C886.628,692.117,886.463,691.982,886.9,691.353Z" fill="#fff"/>
    <path id="路径_863" data-name="路径 863" d="M910.536,687.867a2.849,2.849,0,0,0,1.746,1.779,1.922,1.922,0,0,0,2.246-.748,2.065,2.065,0,0,1,.592-.667c.025.01.237.107.579.648a1.9,1.9,0,0,0,1.592.887,1.816,1.816,0,0,0,.643-.117,2.848,2.848,0,0,0,1.752-1.777c.747-2.185-.86-5.513-2.339-7.921a2.624,2.624,0,0,0-4.47,0C911.4,682.357,909.792,685.682,910.536,687.867ZM914.59,681a.615.615,0,0,1,1.045,0c1.693,2.757,2.517,5.139,2.149,6.217a.806.806,0,0,1-.442.5,2.733,2.733,0,0,0-2.208-1.495,2.772,2.772,0,0,0-2.239,1.5.807.807,0,0,1-.455-.505C912.072,686.14,912.9,683.759,914.59,681Z" fill="#fff"/>
    <path id="路径_864" data-name="路径 864" d="M907.039,680.077a6.1,6.1,0,0,0,6.092-6.092l0-.567c.011-2.029.022-3.944-1.149-5.121-2.808-2.826-11.037,1.527-11.037,5.688A6.1,6.1,0,0,0,907.039,680.077Zm3.52-10.362c.581.584.572,2.164.564,3.692l0,.578a4.082,4.082,0,0,1-8.164,0C902.957,671.372,909.245,668.392,910.559,669.715Z" fill="#fff"/>
    <path id="路径_865" data-name="路径 865" d="M923.708,680.077c3.009,0,5.393-2.318,6.074-5.908.767-4.085-2.85-7.017-6.875-7.017a6.9,6.9,0,0,0-1.978.279c-3.32.979-3.317,3.545-3.313,6.261v.293A6.1,6.1,0,0,0,923.708,680.077Zm-4.082-6.387c0-2.807.085-3.8,1.877-4.333a4.888,4.888,0,0,1,1.4-.2c2.713,0,5.429,1.81,4.9,4.635-.392,2.064-1.675,4.269-4.1,4.269a4.086,4.086,0,0,1-4.082-4.081Z" fill="#fff"/>
    <path id="路径_866" data-name="路径 866" d="M924.836,690.771a3.015,3.015,0,0,0-3.193-.662,17.756,17.756,0,0,1-6.493,1.193,22.1,22.1,0,0,1-6.176-.921c-2.251-.777-2.325-.762-2.712-.762-4.064,0-3.757,7.751,3.048,11.134a.99.99,0,0,0,.326.145,11.939,11.939,0,0,0,5.007,1.1h.019C923.116,701.984,927.623,693.581,924.836,690.771Zm-1.218,2.645a16.609,16.609,0,0,1-2.663,1.341l-.5-2.15C922,692.185,923.938,691.045,923.618,693.416Zm-12.737-.517-.48,2.11c-.547-.151-1.106-.33-1.672-.526l.591-1.924C909.812,692.684,910.336,692.8,910.881,692.9Zm3.6.393v2.43a18.723,18.723,0,0,1-2.122-.268l.516-2.265C913.4,693.242,913.933,693.275,914.482,693.292Zm4.009-.263.533,2.294c-.03.013-.052.038-.081.054a14.643,14.643,0,0,1-2.451.357v-2.481C917.167,693.209,917.834,693.137,918.491,693.029Zm-4.886,4.615.025,2.289a9.919,9.919,0,0,1-2.744-.687l.031-2.052A22.162,22.162,0,0,0,913.6,697.644Zm2.012.113a17.161,17.161,0,0,0,2.8-.241v1.722a9.962,9.962,0,0,1-2.778.7Zm-8.226-5.766-.545,1.775c-.392-.163-.79-.339-1.192-.523C905.445,691.064,906.269,691.612,907.391,691.991Zm-.77,3.847c.778.309,1.544.587,2.293.82l-.022,1.5A8.738,8.738,0,0,1,906.621,695.838Zm13.808,2.3v-1.083l.019-.005h.008l.007,0a16.91,16.91,0,0,0,1.816-.674A8.965,8.965,0,0,1,920.429,698.138Z" fill="#fff"/>
  </g>
</svg>
