<svg xmlns="http://www.w3.org/2000/svg" width="72.863" height="69.331" viewBox="0 0 72.863 69.331">
  <g id="icon2" transform="translate(-257.295 -645.719)">
    <path id="路径_903" data-name="路径 903" d="M305.6,645.719V663.55a2.919,2.919,0,0,1-2.92,2.911h-4.859a12.608,12.608,0,0,0-8.611-3.582h-5.832c-7.933,0-14.386,8-14.386,17.841a21.342,21.342,0,0,0,.913,6.207,19.156,19.156,0,0,0-1.821,8.189v9.365a5.234,5.234,0,0,0-5.6,2.84,3.955,3.955,0,0,0-5.185,3.762,3.959,3.959,0,0,0,6.7,2.865,5.257,5.257,0,0,0,3.219,1.1,5.331,5.331,0,0,0,3.737-1.54,6.416,6.416,0,0,0,8.262.066,4.9,4.9,0,0,0,3.492,1.474,4.828,4.828,0,0,0,2.642-.78,4.247,4.247,0,0,0,.39-.285,4.407,4.407,0,0,0,2.869,1.065,4.485,4.485,0,1,0,0-8.969,4.4,4.4,0,0,0-2.336.673l-.023-.024a4.831,4.831,0,0,0-2.429-1.377,4.074,4.074,0,0,0-.767-.126V698.57h6.157a12.612,12.612,0,0,0,8.651-3.622h12.565a19.756,19.756,0,0,0,19.735-19.734V645.719Zm-36.037,49.4a17.706,17.706,0,0,1,1.791-7.8l.075-.162v0a17.413,17.413,0,0,1,2.562-3.847,17.975,17.975,0,0,1,13.581-6.2H292.3c.075.347.154.691.207,1.045.008.058.016.118.024.178.039.278.053.566.077.849h-5.287a15.8,15.8,0,0,0-13.464,7.473l-.113.189v0c-.057.1-.106.193-.16.288s-.1.159-.14.24c-.029.052-.052.1-.08.154-.1.181-.194.363-.285.547,0,.01-.012.022-.017.033l-.2.432c-.037.077-.07.16-.106.239s-.057.127-.084.192c-.08.191-.159.388-.243.6l-.072.16v.039c-.018.055-.031.11-.049.165-.116.337-.218.681-.313,1.028-.014.051-.032.1-.046.153h0l-.006.017a16.507,16.507,0,0,0-.485,3.926v8.214a6.388,6.388,0,0,0-1.727,1.768c-.054-.03-.112-.05-.168-.077Zm4.49-14.4c0-5.475,2.532-10.3,6.315-12.08l.583-.237c.047-.017.093-.036.14-.052a6.882,6.882,0,0,1,.947-.26c.058-.011.117-.026.175-.036a6.9,6.9,0,0,1,1.006-.09c.166,0,.331,0,.495,0,.093.005.186.007.278.015.07.007.139.012.208.02s.158.027.237.039a6.273,6.273,0,0,1,.725.153,7.376,7.376,0,0,1,1.027.354c.052.022.11.051.165.076.129.059.256.126.382.193s.25.134.381.216c.051.03.1.063.15.094a8.537,8.537,0,0,1,.748.528c.02.014.04.029.06.045a9.636,9.636,0,0,1,.791.708c.019.019.037.04.055.059.145.146.284.291.423.456.181.209.355.419.53.661.173.227.337.454.5.712.145.218.291.455.407.671l.05.1c.049.087.1.179.145.27.039.073.076.147.113.221.053.106.1.213.156.33.042.084.079.169.118.254.045.1.09.207.134.312s.076.185.112.287c.119.283.219.576.317.889h-4.351a19.445,19.445,0,0,0-13.509,5.462C274.058,680.967,274.05,680.845,274.05,680.72Zm13.036,2.013a12.214,12.214,0,0,0-11.3,7.5,11.714,11.714,0,0,0-.952,4.433,2.736,2.736,0,0,0-.015.326v7.15a6.539,6.539,0,0,0-1.884.373v-7.454a14.954,14.954,0,0,1,.439-3.56c.106-.392.227-.784.359-1.17.082-.234.173-.464.267-.693.052-.128.1-.258.158-.379.091-.206.189-.408.29-.609.075-.155.156-.311.243-.466.135-.247.271-.494.42-.732l.092-.155a14.327,14.327,0,0,1,12.118-6.632H292.7c0,.019,0,.039,0,.059a17.251,17.251,0,0,1-.127,2.013Zm5.235,1.48c-.062.3-.111.6-.189.889l0,.023c-.108.4-.248.773-.384,1.15h-4.9a8.63,8.63,0,0,0-8.644,8.654v7.991a6.464,6.464,0,0,0-1.9-.675v-7.257a1.894,1.894,0,0,1,.01-.227,10.43,10.43,0,0,1,.841-3.957,10.739,10.739,0,0,1,9.935-6.591Zm-8.848,22.579a3.379,3.379,0,0,1,1.7.96,3.434,3.434,0,0,1,.362.432l.476.7.629-.563a2.947,2.947,0,0,1,1.963-.759,3,3,0,1,1,0,6.009,2.95,2.95,0,0,1-2.28-1.091l-.538-.655-.576.622a3.494,3.494,0,0,1-.67.582,3.342,3.342,0,0,1-1.837.542,3.389,3.389,0,0,1-2.815-1.488l-.52-.747-.626.66a5.02,5.02,0,0,1-3.627,1.575,4.953,4.953,0,0,1-3.665-1.632l-.61-.674L270.3,712a3.842,3.842,0,0,1-3.092,1.571,3.761,3.761,0,0,1-2.745-1.186l-.634-.679-.52.768a2.481,2.481,0,1,1-2.062-3.866,2.387,2.387,0,0,1,1.236.337l.8.482.289-.886a3.828,3.828,0,0,1,3.639-2.657,3.825,3.825,0,0,1,2.318.791l.725.564.4-.827a4.928,4.928,0,0,1,1.926-2.114,4.974,4.974,0,0,1,5.861.568,4.886,4.886,0,0,1,1.337,1.985l.311.876.783-.5a3.318,3.318,0,0,1,2.6-.435Zm-1.654-13.459h0v.012a5.16,5.16,0,0,0-.176.7,4.736,4.736,0,0,0-.071.818v10.486a4.6,4.6,0,0,0-.733.235,6.387,6.387,0,0,0-1.161-1.552v-9.1a7.147,7.147,0,0,1,7.164-7.173h4.308c-.054.111-.113.218-.17.328-.093.179-.183.359-.295.545-.011.022-.025.042-.037.064-.129.22-.261.441-.4.651l-.03.038c-.105.155-.213.3-.321.44l0,.006h-3.3A4.981,4.981,0,0,0,281.819,693.333Zm6.743-2.026c-.044.04-.085.084-.129.124-.125.109-.249.212-.374.311-.1.078-.192.152-.29.224-.125.093-.251.184-.382.271-.188.124-.378.244-.572.35l-.056.032-.073.038a8.042,8.042,0,0,1-.743.345h0a7.124,7.124,0,0,1-.754.245c-.066.019-.138.036-.207.052-.208.05-.416.091-.627.122l-.1.016a5.993,5.993,0,0,1-.877.061c-.015,0-.027,0-.042,0a3.51,3.51,0,0,1,3.26-2.189ZM283.3,697.09v-2.111l.058,0,.021,0c.02,0,.038,0,.057,0a6.971,6.971,0,0,0,.846-.053c.078-.008.155-.016.232-.026a4.036,4.036,0,0,0,.471-.078c.1-.019.21-.047.317-.072s.185-.045.278-.071c.136-.036.273-.075.425-.124.12-.037.247-.084.372-.13.034-.013.068-.024.1-.038.136-.054.269-.112.4-.173l.138-.062c.077-.036.164-.083.246-.125s.147-.072.219-.112.122-.065.186-.1l.1-.055a4.391,4.391,0,0,0,.375-.235.413.413,0,0,0,.043-.031c.146-.095.288-.2.431-.3.121-.089.242-.18.362-.277.141-.113.281-.228.418-.35.03-.026.061-.049.092-.076.152-.131.294-.271.435-.413.021-.022.04-.045.061-.065.061-.063.12-.127.181-.192.212-.225.416-.456.591-.68.018-.02.037-.04.054-.062l.149-.162.015-.045c.154-.2.3-.4.449-.62l.027-.036a14.071,14.071,0,0,0,.85-1.449c.052-.1.109-.194.16-.3l.031-.074c.039-.081.077-.166.114-.249.017-.036.042-.078.053-.1.1-.229.2-.46.289-.694.006-.016.014-.032.02-.048l0-.007.006-.015c.114-.288.226-.577.318-.875.093-.279.186-.559.256-.84l.009-.039.005-.017c.056-.214.112-.438.174-.7l.039-.18c.021-.093.042-.186.057-.266.052-.248.094-.507.136-.768a18.813,18.813,0,0,0,.216-2.867c0-.263-.01-.525-.02-.829v-.005c-.011-.273-.03-.548-.05-.795a4.323,4.323,0,0,0-.061-.543c-.011-.115-.029-.232-.044-.347-.012-.091-.02-.182-.034-.272l-.005-.038a16.063,16.063,0,0,0-.332-1.662c0-.014-.005-.029-.009-.043l-.007-.024c0-.011,0-.021-.008-.033l-.024-.1c-.041-.148-.088-.289-.13-.434-.071-.244-.145-.487-.226-.723-.051-.153-.1-.3-.158-.44-.069-.185-.139-.369-.213-.548-.059-.146-.119-.283-.182-.417a15.092,15.092,0,0,0-.726-1.425q-.12-.206-.241-.393A13.348,13.348,0,0,0,290.5,670c-.011-.013-.021-.028-.032-.04l-.013-.014c-.109-.124-.223-.244-.336-.363-.067-.071-.128-.144-.2-.215-.027-.026-.056-.048-.083-.074-.277-.272-.56-.53-.854-.766l-.032-.023a10.036,10.036,0,0,0-.872-.614c-.028-.019-.056-.043-.085-.061-.07-.046-.137-.074-.207-.116-.135-.08-.27-.159-.407-.231-.046-.023-.094-.057-.139-.079-.172-.086-.328-.157-.482-.224l-.031-.014c-.2-.088-.4-.164-.575-.223-.06-.024-.118-.038-.175-.057l-.09-.029-.061-.02-.106-.032a7.821,7.821,0,0,0-1.238-.263l-.143-.013c-.078-.009-.158-.016-.237-.023-.055,0-.112-.013-.166-.016s-.1,0-.145,0c-.138-.007-.275-.022-.415-.022-.121,0-.241.014-.362.018l-.147.008a8.1,8.1,0,0,0-.908.106l-.069.01a8.32,8.32,0,0,0-.889.21l-.029.008c-.033.009-.067.016-.1.026a9.117,9.117,0,0,0-.965.359l-.439.2v.018c-4.145,2.11-6.9,7.378-6.9,13.289,0,.634.037,1.258.1,1.867A18.924,18.924,0,0,0,270.93,685a20.13,20.13,0,0,1-.462-4.28c0-8.775,5.483-15.938,12.331-16.324.193-.01.382-.036.576-.036,5.852,0,10.984,5,12.479,12.165a19.124,19.124,0,0,1,.418,3.423c.01.258.02.515.02.772a20.355,20.355,0,0,1-.171,2.659,19.679,19.679,0,0,1-.751,3.412,17.833,17.833,0,0,1-1.479,3.412c-2.441,4.327-6.411,6.945-10.563,6.887Zm5.911,0h-.113a15.587,15.587,0,0,0,6.086-6.158,19.406,19.406,0,0,0,1.6-3.694,21.262,21.262,0,0,0,.808-3.668,22.022,22.022,0,0,0,.183-2.85c0-.276-.01-.552-.02-.823a20.694,20.694,0,0,0-.449-3.68c-1.134-5.428-4.222-9.722-8.186-11.857h.09c7.117,0,12.907,7.338,12.907,16.36S296.324,697.09,289.207,697.09Zm39.471-21.876a18.275,18.275,0,0,1-18.255,18.255H299.258a20.892,20.892,0,0,0-.032-25.527h3.451a4.4,4.4,0,0,0,4.4-4.392V647.2h21.6Z" fill="#fff"/>
    <path id="路径_904" data-name="路径 904" d="M308.6,690.722a17.83,17.83,0,0,0,17.81-17.809.74.74,0,1,0-1.48,0,16.35,16.35,0,0,1-16.33,16.33.74.74,0,1,0,0,1.479Z" fill="#fff"/>
    <path id="路径_905" data-name="路径 905" d="M260.487,706.48a2.349,2.349,0,1,0-2.349-2.349A2.351,2.351,0,0,0,260.487,706.48Zm0-3.218a.869.869,0,1,1-.869.869A.871.871,0,0,1,260.487,703.262Z" fill="#fff"/>
    <path id="路径_906" data-name="路径 906" d="M263.065,701.355a2.972,2.972,0,1,0-2.972-2.972A2.975,2.975,0,0,0,263.065,701.355Zm0-4.463a1.491,1.491,0,1,1-1.492,1.491A1.493,1.493,0,0,1,263.065,696.892Z" fill="#fff"/>
    <path id="路径_907" data-name="路径 907" d="M284.663,702.523a2.972,2.972,0,1,0,2.972-2.972A2.975,2.975,0,0,0,284.663,702.523Zm4.464,0a1.492,1.492,0,1,1-1.492-1.493A1.494,1.494,0,0,1,289.127,702.523Z" fill="#fff"/>
  </g>
</svg>
