<svg xmlns="http://www.w3.org/2000/svg" xmlns:xlink="http://www.w3.org/1999/xlink" width="664.532" height="41.849" viewBox="0 0 664.532 41.849">
  <defs>
    <linearGradient id="linear-gradient" y1="0.498" x2="9.958" y2="0.498" gradientUnits="objectBoundingBox">
      <stop offset="0" stop-color="#0cf"/>
      <stop offset="0.994" stop-color="#00fff7"/>
    </linearGradient>
    <linearGradient id="linear-gradient-2" x1="-1.08" y1="0.5" x2="8.627" y2="0.5" xlink:href="#linear-gradient"/>
    <linearGradient id="linear-gradient-3" x1="-2.097" y1="0.493" x2="7.332" y2="0.493" xlink:href="#linear-gradient"/>
    <linearGradient id="linear-gradient-4" x1="-3.261" y1="0.496" x2="6.425" y2="0.496" xlink:href="#linear-gradient"/>
    <linearGradient id="linear-gradient-5" x1="-4.322" y1="0.495" x2="5.322" y2="0.495" xlink:href="#linear-gradient"/>
    <linearGradient id="linear-gradient-6" x1="-5.516" y1="0.498" x2="4.277" y2="0.498" xlink:href="#linear-gradient"/>
    <linearGradient id="linear-gradient-7" x1="-6.538" y1="0.499" x2="3.137" y2="0.499" xlink:href="#linear-gradient"/>
    <linearGradient id="linear-gradient-8" x1="-7.84" y1="0.458" x2="2.095" y2="0.458" xlink:href="#linear-gradient"/>
    <linearGradient id="linear-gradient-9" x1="-9.754" y1="0.502" x2="1" y2="0.502" xlink:href="#linear-gradient"/>
  </defs>
  <g id="logo" transform="translate(-121.126 134.417)">
    <g id="组_246" data-name="组 246">
      <g id="组_244" data-name="组 244">
        <path id="路径_1600" data-name="路径 1600" d="M393.574-121.1a26.075,26.075,0,0,1-4.275,7.38,22.579,22.579,0,0,0-2.88-1.845,18.247,18.247,0,0,0,3.87-6.345Zm1.575-1.35H386.51v-3.284h8.144v-8.325h4.005v2.474h7.334v2.971h-7.334v2.88h8.775v3.284h-8.415v8.955h-3.87Zm-3.015,9.72h28.844v19.844h-4.14V-94.1H396.049v1.305h-3.915Zm3.915,3.1v2.43h20.789v-2.43Zm20.789,7.424v-2.474H396.049v2.474Zm0,4.995v-2.475H396.049V-97.2Zm7.875-34.018a25.853,25.853,0,0,1-6.075,11.114,25.316,25.316,0,0,0,7.875,3.915,14.394,14.394,0,0,0-2.475,3.24,25.759,25.759,0,0,1-8.189-4.635,27.055,27.055,0,0,1-7.7,4.365,16.081,16.081,0,0,0-2.069-2.88l-2.115.945a25.613,25.613,0,0,0-3.6-5.535l2.97-1.26a25.538,25.538,0,0,1,3.779,5.355,23.966,23.966,0,0,0,6.165-3.51,30.159,30.159,0,0,1-5.22-8.37l.765-.225h-1.665v-3.329h14.445l.675-.136Zm-13.05,2.519a22.8,22.8,0,0,0,4.231,6.165,22.849,22.849,0,0,0,4.049-6.165Z"/>
        <path id="路径_1601" data-name="路径 1601" d="M468.948-123.167a35.368,35.368,0,0,1-6.75,9.18,26.588,26.588,0,0,0,9.765,4.68,14.562,14.562,0,0,0-2.475,3.285,28.42,28.42,0,0,1-2.745-.99v3.329H453.6v10.935h-4.23v-10.935H436.459v-3.194c-1.17.54-2.385.99-3.555,1.439a11.347,11.347,0,0,0-2.07-2.969,31,31,0,0,0,11.025-5.985,32.45,32.45,0,0,0-3.24-4.275,30.04,30.04,0,0,1-5.354,3.15,8.991,8.991,0,0,0-2.3-2.565c5.13-2.16,8.55-5.31,10.259-8.189l3.69.674a20.734,20.734,0,0,1-1.4,2.07h5.13l.63-.18,2.341,1.17a25.469,25.469,0,0,1-5.715,9h11.475a29.424,29.424,0,0,1-5.085-7.65l2.114-.63v-2.655H465.8l.72-.225.09.045v-2.385H436.145v3.735h-4v-7.2h17.5a23.666,23.666,0,0,0-1.305-2.835l4.1-.9a32.464,32.464,0,0,1,1.889,3.735h16.47v6.7h-2.925Zm-29.339,9.855c-2.7.675-5.174,1.3-7.559,1.89l-.766-2.79c2.205-.36,5.04-.855,8.1-1.485Zm6.794,11.79c-2.654,3.014-7.064,5.759-10.979,7.514a20.065,20.065,0,0,0-2.835-3.06c3.78-1.349,7.785-3.465,10.035-5.805Zm19.845-5.715a28.85,28.85,0,0,1-6.93-4.41v1.575H444.2v-1.8a34.245,34.245,0,0,1-6.974,4.635Zm-25.514-13.185a30.07,30.07,0,0,1,3.285,3.96,23,23,0,0,0,3.015-4.365h-5.895Zm15.209-.81a24.271,24.271,0,0,0,3.736,5.085,25.7,25.7,0,0,0,3.959-5.085Zm3.42,18.179A77.611,77.611,0,0,1,470.388-96.8l-2.88,3.015a68.164,68.164,0,0,0-10.8-6.614Z"/>
        <path id="路径_1602" data-name="路径 1602" d="M490.864-106.157c-.9-1.26-2.61-3.285-4.14-5.04V-92.7h-4.05v-17.459a39.422,39.422,0,0,1-5.715,4.544,20.418,20.418,0,0,0-1.755-4.139,35.09,35.09,0,0,0,12.375-12.87H476.465v-3.78h8.324a33.083,33.083,0,0,0-3.78-5.445l3.15-1.979a25.081,25.081,0,0,1,4.1,5.58l-2.7,1.844h4.23l.765-.179,2.25,1.574a41.54,41.54,0,0,1-5.445,9.5c1.8,1.665,5.22,4.995,6.12,5.895Zm22.094,9.629c.81,0,.99-.63,1.125-5.4a9.748,9.748,0,0,0,3.465,1.575c-.361,5.985-1.35,7.47-4.185,7.47h-3.375c-3.375,0-4.185-1.17-4.185-4.9V-107.6h-3.284c-.675,7.334-2.611,12.239-10.71,15.029a10.642,10.642,0,0,0-2.2-3.06c7.155-2.205,8.594-6.075,9.134-11.969h-3.509v-24.479h19.529V-107.6h-5.04v9.764c0,1.125.09,1.305.9,1.305Zm-13.9-28.484h11.7v-3.69h-11.7Zm0,7.02h11.7v-3.78h-11.7Zm0,7.02h11.7V-114.8h-11.7Z"/>
        <path id="路径_1603" data-name="路径 1603" d="M556.473-96.528c1.62,0,1.89-.5,2.115-4.05a9.98,9.98,0,0,0,3.465,1.26c-.45,4.86-1.531,6.075-5.13,6.075h-7.2c-4.726,0-5.9-.945-5.9-4.41v-2.835h-5.849c-1.576,4.5-5.265,6.705-15.344,7.785a11.871,11.871,0,0,0-1.8-3.195c8.55-.63,11.61-1.845,12.915-4.59h-5.04v-14.8h25.379v14.8h-6.21v2.835c0,1.035.36,1.125,2.295,1.125ZM526.1-113.357h-3.691v-6.48h4.635l-.63-10.709-.045-.045a61.615,61.615,0,0,0,7.92-3.375l2.295,1.755a43.067,43.067,0,0,1-6.435,2.7l.09,1.44h5.31v2.384h-5.175l.135,1.71h5.22v2.385h-5.085l.09,1.755h6.975a13.336,13.336,0,0,0-1.575-1.35,25.115,25.115,0,0,0,3.825-2.25c-.811-.54-1.665-1.08-2.431-1.485l1.665-1.53c.856.451,1.71.991,2.611,1.576a19.538,19.538,0,0,0,1.889-2.116l2.43.63a17.019,17.019,0,0,1-2.385,2.79,23.9,23.9,0,0,1,2.34,1.98l-1.755,1.665a22.832,22.832,0,0,0-2.34-2.07,28.549,28.549,0,0,1-3.194,2.16h13.679l.136-1.755h-5.175v-2.385h5.354l.135-1.71h-5.31v-2.384h5.4l.09-1.71h-5.985v-2.656h9.81c-.135,4.05-.361,9.09-.675,12.6h4.365v6.48h-3.825v-3.735H526.1Zm6.569,2.3h17.279v-1.89H532.669Zm0,4.095h17.279v-1.89H532.669Zm0,4.184h17.279v-1.934H532.669Zm11.024-24.3a24.6,24.6,0,0,0-2.115-1.844,19.706,19.706,0,0,1-3.465,2.249,14.466,14.466,0,0,0-1.889-1.755,17.887,17.887,0,0,0,3.375-1.889c-.765-.495-1.531-.9-2.25-1.305l1.62-1.485c.809.4,1.62.9,2.474,1.395a12.477,12.477,0,0,0,1.845-1.98l2.386.675a15.479,15.479,0,0,1-2.295,2.609,16.63,16.63,0,0,1,1.979,1.665Z"/>
        <path id="路径_1604" data-name="路径 1604" d="M581.358-132.526a66.282,66.282,0,0,1-4.409,8.5v31.273h-3.96v-25.514a46.787,46.787,0,0,1-5.354,5.985,21.844,21.844,0,0,0-2.295-4.23,48.683,48.683,0,0,0,12.194-17.279Zm18.405,34.738c2.43,0,2.835-1.89,3.2-9.449a12.264,12.264,0,0,0,3.779,1.844c-.585,8.415-1.619,11.385-6.7,11.385h-8.054c-4.951,0-6.345-1.485-6.345-6.885v-32.353h4.005v11.879h15.839v4H589.639V-100.8c0,2.52.45,3.015,2.7,3.015Z"/>
        <path id="路径_1605" data-name="路径 1605" d="M638.958-127.262a4.75,4.75,0,0,1-.09,1.08c2.43,2.475,7.245,4,13.185,4.365a12.178,12.178,0,0,0-2.25,3.42c-5.13-.72-9.225-2.34-12.06-4.95-1.62,2.07-5.175,4-12.914,5.085a11.868,11.868,0,0,0-2.115-3.1h-11.43v-3.285h13.05v2.97c9.765-1.26,10.8-3.779,10.8-5.714v-.585H631.4a21.168,21.168,0,0,1-3.285,4.184,18.355,18.355,0,0,0-3.149-2.115,18.584,18.584,0,0,0,5.175-8.279l3.734.81c-.269.765-.539,1.485-.854,2.25h14.039l.585-.181,2.879.946a41.3,41.3,0,0,1-3.914,6.659l-3.285-1.169a35.176,35.176,0,0,0,1.89-3.105h-6.255ZM638.6-99.993a116.7,116.7,0,0,1,12.689,4.9l-3.78,2.295a87.75,87.75,0,0,0-12.1-5.085l2.611-2.115H624.559l3.735,1.71a61.769,61.769,0,0,1-13.77,5.625,33.985,33.985,0,0,0-3.1-3.15c4.59-.9,9.855-2.43,12.96-4.185h-7.245v-18.089h29.339v18.089Zm-15.345-28.394H612.229v-3.15h11.025Zm-2.07,15.525h21.1v-2.565h-21.1Zm0,5.04h21.1v-2.52h-21.1Zm0,5.175h21.1v-2.61h-21.1Z"/>
        <path id="路径_1606" data-name="路径 1606" d="M672.349-123.167H656.194v-3.33h7.65a47.964,47.964,0,0,0-3.06-6.074l3.015-1.665a47.334,47.334,0,0,1,3.1,5.895l-2.969,1.844h8.414Zm-14.355,5.94v-3.285h12.735v3.285Zm0,2.655h12.779v3.24H657.994Zm12.779,19.259h-9.494v2.025h-3.285V-108.5h12.779Zm-9.494-9.81v6.435h6.165v-6.435Zm31.408-26.459c-.314,16.65-.359,33.389,1.755,34.019.271.09.585-2.834.721-5.85a21.736,21.736,0,0,0,2.295,3.195c-.54,6.39-2.385,7.83-4.725,6.84-4.365-1.53-4.275-16.6-4.23-34.244h-6.659v12.69h5.264v3.87h-5.264V-92.7h-3.915v-18.359h-5.58v-3.87h5.58v-12.69h-5.04v-3.96Z"/>
        <path id="路径_1607" data-name="路径 1607" d="M741.647-108H723.6v15.3h-4.321V-108H701.465v-4.23h17.818v-14.76H703.8v-4.094h35.278v4.094H723.6v14.76h18.043Zm-31.138-17.144a45.1,45.1,0,0,1,3.96,9.719l-4.005,1.35a48.921,48.921,0,0,0-3.735-9.9Zm17.414,9.944a60.362,60.362,0,0,0,4.41-10.125l4.455,1.215a86.345,86.345,0,0,1-5.265,10.08Z"/>
        <path id="路径_1608" data-name="路径 1608" d="M773.823-129.376c4.23,3.824,9.495,9.359,11.835,13.049l-3.511,2.61a35.578,35.578,0,0,0-2.609-3.69c-24.749,1.305-27.629,1.395-29.654,2.115a39.122,39.122,0,0,0-1.35-4.1c1.08-.18,2.205-1.125,3.691-2.565a72.227,72.227,0,0,0,9.944-12.465l4.185,1.8A88.614,88.614,0,0,1,755.6-120.2l20.924-.855c-1.935-2.16-4-4.32-5.94-6.119Zm-21.914,17.5h29.159v19.079h-4.455v-2.295H756.139V-92.7h-4.23Zm4.23,4.005v8.729h20.474v-8.729Z"/>
      </g>
      <g id="组_245" data-name="组 245">
        <path id="路径_1609" data-name="路径 1609" d="M393.574-121.1a26.075,26.075,0,0,1-4.275,7.38,22.579,22.579,0,0,0-2.88-1.845,18.247,18.247,0,0,0,3.87-6.345Zm1.575-1.35H386.51v-3.284h8.144v-8.325h4.005v2.474h7.334v2.971h-7.334v2.88h8.775v3.284h-8.415v8.955h-3.87Zm-3.015,9.72h28.844v19.844h-4.14V-94.1H396.049v1.305h-3.915Zm3.915,3.1v2.43h20.789v-2.43Zm20.789,7.424v-2.474H396.049v2.474Zm0,4.995v-2.475H396.049V-97.2Zm7.875-34.018a25.853,25.853,0,0,1-6.075,11.114,25.316,25.316,0,0,0,7.875,3.915,14.394,14.394,0,0,0-2.475,3.24,25.759,25.759,0,0,1-8.189-4.635,27.055,27.055,0,0,1-7.7,4.365,16.081,16.081,0,0,0-2.069-2.88l-2.115.945a25.613,25.613,0,0,0-3.6-5.535l2.97-1.26a25.538,25.538,0,0,1,3.779,5.355,23.966,23.966,0,0,0,6.165-3.51,30.159,30.159,0,0,1-5.22-8.37l.765-.225h-1.665v-3.329h14.445l.675-.136Zm-13.05,2.519a22.8,22.8,0,0,0,4.231,6.165,22.849,22.849,0,0,0,4.049-6.165Z" fill="url(#linear-gradient)"/>
        <path id="路径_1610" data-name="路径 1610" d="M468.948-123.167a35.368,35.368,0,0,1-6.75,9.18,26.588,26.588,0,0,0,9.765,4.68,14.562,14.562,0,0,0-2.475,3.285,28.42,28.42,0,0,1-2.745-.99v3.329H453.6v10.935h-4.23v-10.935H436.459v-3.194c-1.17.54-2.385.99-3.555,1.439a11.347,11.347,0,0,0-2.07-2.969,31,31,0,0,0,11.025-5.985,32.45,32.45,0,0,0-3.24-4.275,30.04,30.04,0,0,1-5.354,3.15,8.991,8.991,0,0,0-2.3-2.565c5.13-2.16,8.55-5.31,10.259-8.189l3.69.674a20.734,20.734,0,0,1-1.4,2.07h5.13l.63-.18,2.341,1.17a25.469,25.469,0,0,1-5.715,9h11.475a29.424,29.424,0,0,1-5.085-7.65l2.114-.63v-2.655H465.8l.72-.225.09.045v-2.385H436.145v3.735h-4v-7.2h17.5a23.666,23.666,0,0,0-1.305-2.835l4.1-.9a32.464,32.464,0,0,1,1.889,3.735h16.47v6.7h-2.925Zm-29.339,9.855c-2.7.675-5.174,1.3-7.559,1.89l-.766-2.79c2.205-.36,5.04-.855,8.1-1.485Zm6.794,11.79c-2.654,3.014-7.064,5.759-10.979,7.514a20.065,20.065,0,0,0-2.835-3.06c3.78-1.349,7.785-3.465,10.035-5.805Zm19.845-5.715a28.85,28.85,0,0,1-6.93-4.41v1.575H444.2v-1.8a34.245,34.245,0,0,1-6.974,4.635Zm-25.514-13.185a30.07,30.07,0,0,1,3.285,3.96,23,23,0,0,0,3.015-4.365h-5.895Zm15.209-.81a24.271,24.271,0,0,0,3.736,5.085,25.7,25.7,0,0,0,3.959-5.085Zm3.42,18.179A77.611,77.611,0,0,1,470.388-96.8l-2.88,3.015a68.164,68.164,0,0,0-10.8-6.614Z" fill="url(#linear-gradient-2)"/>
        <path id="路径_1611" data-name="路径 1611" d="M490.864-106.157c-.9-1.26-2.61-3.285-4.14-5.04V-92.7h-4.05v-17.459a39.422,39.422,0,0,1-5.715,4.544,20.418,20.418,0,0,0-1.755-4.139,35.09,35.09,0,0,0,12.375-12.87H476.465v-3.78h8.324a33.083,33.083,0,0,0-3.78-5.445l3.15-1.979a25.081,25.081,0,0,1,4.1,5.58l-2.7,1.844h4.23l.765-.179,2.25,1.574a41.54,41.54,0,0,1-5.445,9.5c1.8,1.665,5.22,4.995,6.12,5.895Zm22.094,9.629c.81,0,.99-.63,1.125-5.4a9.748,9.748,0,0,0,3.465,1.575c-.361,5.985-1.35,7.47-4.185,7.47h-3.375c-3.375,0-4.185-1.17-4.185-4.9V-107.6h-3.284c-.675,7.334-2.611,12.239-10.71,15.029a10.642,10.642,0,0,0-2.2-3.06c7.155-2.205,8.594-6.075,9.134-11.969h-3.509v-24.479h19.529V-107.6h-5.04v9.764c0,1.125.09,1.305.9,1.305Zm-13.9-28.484h11.7v-3.69h-11.7Zm0,7.02h11.7v-3.78h-11.7Zm0,7.02h11.7V-114.8h-11.7Z" fill="url(#linear-gradient-3)"/>
        <path id="路径_1612" data-name="路径 1612" d="M556.473-96.528c1.62,0,1.89-.5,2.115-4.05a9.98,9.98,0,0,0,3.465,1.26c-.45,4.86-1.531,6.075-5.13,6.075h-7.2c-4.726,0-5.9-.945-5.9-4.41v-2.835h-5.849c-1.576,4.5-5.265,6.705-15.344,7.785a11.871,11.871,0,0,0-1.8-3.195c8.55-.63,11.61-1.845,12.915-4.59h-5.04v-14.8h25.379v14.8h-6.21v2.835c0,1.035.36,1.125,2.295,1.125ZM526.1-113.357h-3.691v-6.48h4.635l-.63-10.709-.045-.045a61.615,61.615,0,0,0,7.92-3.375l2.295,1.755a43.067,43.067,0,0,1-6.435,2.7l.09,1.44h5.31v2.384h-5.175l.135,1.71h5.22v2.385h-5.085l.09,1.755h6.975a13.336,13.336,0,0,0-1.575-1.35,25.115,25.115,0,0,0,3.825-2.25c-.811-.54-1.665-1.08-2.431-1.485l1.665-1.53c.856.451,1.71.991,2.611,1.576a19.538,19.538,0,0,0,1.889-2.116l2.43.63a17.019,17.019,0,0,1-2.385,2.79,23.9,23.9,0,0,1,2.34,1.98l-1.755,1.665a22.832,22.832,0,0,0-2.34-2.07,28.549,28.549,0,0,1-3.194,2.16h13.679l.136-1.755h-5.175v-2.385h5.354l.135-1.71h-5.31v-2.384h5.4l.09-1.71h-5.985v-2.656h9.81c-.135,4.05-.361,9.09-.675,12.6h4.365v6.48h-3.825v-3.735H526.1Zm6.569,2.3h17.279v-1.89H532.669Zm0,4.095h17.279v-1.89H532.669Zm0,4.184h17.279v-1.934H532.669Zm11.024-24.3a24.6,24.6,0,0,0-2.115-1.844,19.706,19.706,0,0,1-3.465,2.249,14.466,14.466,0,0,0-1.889-1.755,17.887,17.887,0,0,0,3.375-1.889c-.765-.495-1.531-.9-2.25-1.305l1.62-1.485c.809.4,1.62.9,2.474,1.395a12.477,12.477,0,0,0,1.845-1.98l2.386.675a15.479,15.479,0,0,1-2.295,2.609,16.63,16.63,0,0,1,1.979,1.665Z" fill="url(#linear-gradient-4)"/>
        <path id="路径_1613" data-name="路径 1613" d="M581.358-132.526a66.282,66.282,0,0,1-4.409,8.5v31.273h-3.96v-25.514a46.787,46.787,0,0,1-5.354,5.985,21.844,21.844,0,0,0-2.295-4.23,48.683,48.683,0,0,0,12.194-17.279Zm18.405,34.738c2.43,0,2.835-1.89,3.2-9.449a12.264,12.264,0,0,0,3.779,1.844c-.585,8.415-1.619,11.385-6.7,11.385h-8.054c-4.951,0-6.345-1.485-6.345-6.885v-32.353h4.005v11.879h15.839v4H589.639V-100.8c0,2.52.45,3.015,2.7,3.015Z" fill="url(#linear-gradient-5)"/>
        <path id="路径_1614" data-name="路径 1614" d="M638.958-127.262a4.75,4.75,0,0,1-.09,1.08c2.43,2.475,7.245,4,13.185,4.365a12.178,12.178,0,0,0-2.25,3.42c-5.13-.72-9.225-2.34-12.06-4.95-1.62,2.07-5.175,4-12.914,5.085a11.868,11.868,0,0,0-2.115-3.1h-11.43v-3.285h13.05v2.97c9.765-1.26,10.8-3.779,10.8-5.714v-.585H631.4a21.168,21.168,0,0,1-3.285,4.184,18.355,18.355,0,0,0-3.149-2.115,18.584,18.584,0,0,0,5.175-8.279l3.734.81c-.269.765-.539,1.485-.854,2.25h14.039l.585-.181,2.879.946a41.3,41.3,0,0,1-3.914,6.659l-3.285-1.169a35.176,35.176,0,0,0,1.89-3.105h-6.255ZM638.6-99.993a116.7,116.7,0,0,1,12.689,4.9l-3.78,2.295a87.75,87.75,0,0,0-12.1-5.085l2.611-2.115H624.559l3.735,1.71a61.769,61.769,0,0,1-13.77,5.625,33.985,33.985,0,0,0-3.1-3.15c4.59-.9,9.855-2.43,12.96-4.185h-7.245v-18.089h29.339v18.089Zm-15.345-28.394H612.229v-3.15h11.025Zm-2.07,15.525h21.1v-2.565h-21.1Zm0,5.04h21.1v-2.52h-21.1Zm0,5.175h21.1v-2.61h-21.1Z" fill="url(#linear-gradient-6)"/>
        <path id="路径_1615" data-name="路径 1615" d="M672.349-123.167H656.194v-3.33h7.65a47.964,47.964,0,0,0-3.06-6.074l3.015-1.665a47.334,47.334,0,0,1,3.1,5.895l-2.969,1.844h8.414Zm-14.355,5.94v-3.285h12.735v3.285Zm0,2.655h12.779v3.24H657.994Zm12.779,19.259h-9.494v2.025h-3.285V-108.5h12.779Zm-9.494-9.81v6.435h6.165v-6.435Zm31.408-26.459c-.314,16.65-.359,33.389,1.755,34.019.271.09.585-2.834.721-5.85a21.736,21.736,0,0,0,2.295,3.195c-.54,6.39-2.385,7.83-4.725,6.84-4.365-1.53-4.275-16.6-4.23-34.244h-6.659v12.69h5.264v3.87h-5.264V-92.7h-3.915v-18.359h-5.58v-3.87h5.58v-12.69h-5.04v-3.96Z" fill="url(#linear-gradient-7)"/>
        <path id="路径_1616" data-name="路径 1616" d="M741.647-108H723.6v15.3h-4.321V-108H701.465v-4.23h17.818v-14.76H703.8v-4.094h35.278v4.094H723.6v14.76h18.043Zm-31.138-17.144a45.1,45.1,0,0,1,3.96,9.719l-4.005,1.35a48.921,48.921,0,0,0-3.735-9.9Zm17.414,9.944a60.362,60.362,0,0,0,4.41-10.125l4.455,1.215a86.345,86.345,0,0,1-5.265,10.08Z" fill="url(#linear-gradient-8)"/>
        <path id="路径_1617" data-name="路径 1617" d="M773.823-129.376c4.23,3.824,9.495,9.359,11.835,13.049l-3.511,2.61a35.578,35.578,0,0,0-2.609-3.69c-24.749,1.305-27.629,1.395-29.654,2.115a39.122,39.122,0,0,0-1.35-4.1c1.08-.18,2.205-1.125,3.691-2.565a72.227,72.227,0,0,0,9.944-12.465l4.185,1.8A88.614,88.614,0,0,1,755.6-120.2l20.924-.855c-1.935-2.16-4-4.32-5.94-6.119Zm-21.914,17.5h29.159v19.079h-4.455v-2.295H756.139V-92.7h-4.23Zm4.23,4.005v8.729h20.474v-8.729Z" fill="url(#linear-gradient-9)"/>
      </g>
    </g>
    <g id="组_252" data-name="组 252">
      <g id="组_248" data-name="组 248">
        <g id="组_247" data-name="组 247">
          <path id="路径_1618" data-name="路径 1618" d="M171.42-118.328a34.81,34.81,0,0,1-2.795,4v13.636h-3.109v-10.214c-.732.7-1.437,1.358-2.142,1.933a30.568,30.568,0,0,0-2.116-2.691,25.427,25.427,0,0,0,7.183-7.811Zm-.967-5.564a35.129,35.129,0,0,1-7.183,6.871,18.1,18.1,0,0,0-1.725-2.535,23.229,23.229,0,0,0,5.9-5.564Zm15.36,10.4h-3.579v9.169c0,1.672-.313,2.534-1.463,3a14.414,14.414,0,0,1-5.093.523,12.873,12.873,0,0,0-.941-3.161c1.49.078,3.213.078,3.684.052.47,0,.653-.105.653-.5V-113.5h-7.707v-2.952h14.446Zm-.653-7.184h-12.7v-2.952h12.7Z" fill="#fff"/>
          <path id="路径_1619" data-name="路径 1619" d="M210.788-117.492a30.045,30.045,0,0,1-3.03,10.057,12.621,12.621,0,0,0,4.885,4.023,11.58,11.58,0,0,0-2.116,2.665,14.086,14.086,0,0,1-4.676-3.971,16.539,16.539,0,0,1-5.33,4.049,12.067,12.067,0,0,0-1.75-2.743,13.222,13.222,0,0,0,5.33-4.049,29.137,29.137,0,0,1-2.143-5.747,12.2,12.2,0,0,1-.914,1.28,14.985,14.985,0,0,0-1.437-1.41v.234h-2.978v5.356l3.683-.784.262,2.847c-4.284.994-8.908,1.986-12.252,2.744l-.549-3.162,1.359-.234v-11.129h2.795v10.632l1.672-.313V-120.6h-5.224v-2.978h11.964v2.978h-3.71v4.572h2.978v.653a26.131,26.131,0,0,0,3.24-9.744l3.082.471c-.235,1.462-.575,2.9-.94,4.284h7.419v2.873Zm-6.87.34a30.787,30.787,0,0,0,1.985,6.583,25.323,25.323,0,0,0,1.75-6.923h-3.6Z" fill="#fff"/>
          <path id="路径_1620" data-name="路径 1620" d="M223.642-123.056c-.68,2.194-1.541,4.806-2.273,6.844a8.5,8.5,0,0,1,1.907,5.407c0,1.7-.339,2.822-1.175,3.449a3.2,3.2,0,0,1-1.49.575,8.628,8.628,0,0,1-1.672.052,6.3,6.3,0,0,0-.679-2.665,8.624,8.624,0,0,0,1.124.026,1.121,1.121,0,0,0,.705-.209,2.01,2.01,0,0,0,.444-1.567,7.407,7.407,0,0,0-1.8-4.781c.523-1.567,1.045-3.683,1.463-5.407H218.1V-100.8h-2.717v-23.3h5.773l.444-.13ZM235.894-103.7c.391,0,.522-.444.574-3.109a7.722,7.722,0,0,0,2.534,1.15c-.235,3.579-.967,4.571-2.795,4.571h-1.8c-2.3,0-2.821-.888-2.821-3.474v-5.329h-1.724c-.392,4.389-1.593,7.419-6.662,9.169a8.111,8.111,0,0,0-1.723-2.508c4.153-1.28,5.093-3.4,5.407-6.661h-3.135v-2.769h14.89v2.769h-4.1v5.355c0,.731.052.836.418.836Zm-10.189-13.218h-2.037v-5.146h6.061a19.239,19.239,0,0,0-1.072-2.482l2.952-.836a16.653,16.653,0,0,1,1.489,3.318h5.408v5.146h-2.064v2.325H225.705Zm.836-2.482v2.116h8.986V-119.4Z" fill="#fff"/>
          <path id="路径_1621" data-name="路径 1621" d="M264.734-106.572c-1.018.522-2.037,1.045-3,1.489a10.849,10.849,0,0,0,3.631,1.7,10.9,10.9,0,0,0-1.828,2.378,11.376,11.376,0,0,1-7.079-6.975,16.9,16.9,0,0,1-2.534,1.8v2.247l3.683-.706a13.176,13.176,0,0,0-.026,2.273c-4.833,1.045-5.695,1.28-6.191,1.594a7.676,7.676,0,0,0-.993-2.09,1.821,1.821,0,0,0,1.045-1.777v-.235c-.731.314-1.437.549-2.142.784a13.822,13.822,0,0,0-1.2-1.515l.026.183c-2.4.7-4.963,1.359-7.079,1.933l-.522-2.822c.757-.156,1.593-.365,2.56-.6v-6.426h-2.038v-2.691h2.038v-4.859h-2.221V-123.6h7.079v2.716h-2.142v4.859H247.7v2.691h-1.907v5.773l1.96-.523.235,1.776a23.591,23.591,0,0,0,5.355-2.115h-3v-5.721H263.35v5.721h-4.363a7.331,7.331,0,0,0,1.124,1.776,21.055,21.055,0,0,0,2.586-1.75Zm.079-8.491H248.826v-2.455h15.987Zm-.836-3.291H249.74v-5.93h14.237Zm-10.083-3.84h-1.646v1.75h1.646Zm-.81,11.625h7.34v-1.463h-7.34Zm4.519-11.625h-1.672v1.75H257.6Zm3.709,0h-1.724v1.75h1.724Z" fill="#fff"/>
          <path id="路径_1622" data-name="路径 1622" d="M276.021-107.017c-2.691,1.123-5.669,2.326-8.02,3.24l-1.019-3.187c.862-.262,1.881-.575,3-.967v-8.046h-2.534v-2.952h2.534v-5.851h3.031v5.851h2.22v2.952h-2.22v7c.809-.287,1.593-.575,2.4-.862Zm12.069,3.527a1.619,1.619,0,0,0,.522-.052c.131-.053.235-.209.314-.522.052-.314.078-1.019.1-1.96a7.983,7.983,0,0,0,2.377,1.28,9.566,9.566,0,0,1-.391,2.456,2.108,2.108,0,0,1-1.1.966,5.263,5.263,0,0,1-1.619.235h-1.672a3.21,3.21,0,0,1-1.985-.627c-.5-.444-.732-.992-.732-2.586v-3.161h-1.881c-.444,3.448-1.75,5.591-6.635,6.818a7.186,7.186,0,0,0-1.594-2.377c4.023-.784,4.964-2.116,5.329-4.441h-2.168v-7.889h12.513v7.889h-2.691v3.239c0,.34,0,.523.105.627a.779.779,0,0,0,.47.105Zm2.664-12.748H275.942v-2.56H279.1a12.152,12.152,0,0,0-.576-1.724l2.508-.5a12.685,12.685,0,0,1,.81,2.221H284.8c.287-.731.575-1.567.758-2.221l2.821.523c-.314.6-.575,1.176-.862,1.7h3.239Zm-.679-4.807h-13.4v-2.508h5.172c-.157-.418-.313-.862-.444-1.227l2.926-.549c.235.522.5,1.2.7,1.776h5.042Zm-10.266,8.726H286.5v-1.1h-6.687Zm0,2.9H286.5v-1.1h-6.687Z" fill="#fff"/>
          <path id="路径_1623" data-name="路径 1623" d="M302.275-124.127a39.219,39.219,0,0,1-2.586,5.407V-100.8h-2.952v-13.428c-.6.758-1.227,1.463-1.828,2.117a20.872,20.872,0,0,0-1.672-3.188,27.554,27.554,0,0,0,6.165-9.769Zm4.572,15.883a33.247,33.247,0,0,1-4,6.374,16.2,16.2,0,0,0-2.4-1.672,23.548,23.548,0,0,0,3.605-5.538Zm4.206-1.646v9.169h-3.135v-9.169H301.1v-2.821h6.818v-2.3H302.8V-124h13.715v8.987h-5.46v2.3h6.765v2.821Zm-5.3-7.863H313.4v-3.5H305.75Zm8.49,8.647a30.343,30.343,0,0,1,3.84,5.511l-2.456,1.49a34.725,34.725,0,0,0-3.683-5.721Z" fill="#fff"/>
          <path id="路径_1624" data-name="路径 1624" d="M329.653-118.354h-9.691v-2.456h4.389A24.345,24.345,0,0,0,322.7-124.1l2.324-1.124a25.934,25.934,0,0,1,1.908,3.475l-1.7.94h4.415Zm13.741,10.4a11.579,11.579,0,0,1-3.579,3.893,26.082,26.082,0,0,0,4.833.861,10.9,10.9,0,0,0-1.7,2.456,20.546,20.546,0,0,1-6.087-1.724,29.553,29.553,0,0,1-6.687,1.776,8.942,8.942,0,0,0-1.28-2.4v.94h-5.33v1.1h-2.533v-9.012H328.9v6.949a29.137,29.137,0,0,0,5.25-1.019,11.6,11.6,0,0,1-2.063-2.169l.992-.313h-2.847v-2.09H341.1l.47-.1Zm-10.083-13.584h-3.605v-2.3h3.605v-1.28h2.716v4.807h-2.246l.627.157c-.157.391-.314.809-.5,1.2h2.3c-.13-.418-.261-.862-.392-1.228l2.168-.522v-4.415h2.743v1.254h3.449v2.3h-3.449v1.254H338.8c.157.417.314.914.444,1.358h4.284v1.855h-4.466v.888h3.761v1.541h-3.761v.889h3.761v1.541h-3.761v.94h4.989v1.8H333.729v.392h-2.561v-5.33a8.369,8.369,0,0,1-.914.993,22.1,22.1,0,0,0-1.489-2.246v.862h-7.68v-2.352h7.68v1.385a13.829,13.829,0,0,0,3.161-5.068l1.358.418Zm-12.226,7.863h7.68v2.351h-7.68Zm5.225,6.087h-2.744v2.925h2.744Zm10.162-9.509h-2.743v.888h2.743Zm0,2.429h-2.743v.889h2.743Zm0,2.43h-2.743v.94h2.743Zm-1.437,5.616a7.191,7.191,0,0,0,1.906,1.385,9.591,9.591,0,0,0,2.117-1.385Z" fill="#fff"/>
          <path id="路径_1625" data-name="路径 1625" d="M362.544-111.118c-.706.392-1.411.784-2.169,1.149h7.654v9.117H365v-.574h-9.978v.627h-2.875v-6.009c-1.462.445-2.951.836-4.466,1.2a15.554,15.554,0,0,0-1.463-2.638,57.094,57.094,0,0,0,10.136-2.874h-9.431v-2.429h9.326v-1.28h-6.531v-2.352h6.531v-1.2h-7.941v-5.878h20.637v5.878h-9.692v1.2h5.329v1.568a20.993,20.993,0,0,0,2.508-2.246l2.456,1.488a26.173,26.173,0,0,1-3.239,2.822h3.918v2.429Zm-8.386-11.024h-2.9v1.62h2.9Zm.941,14.368-.078.026v1.019H365v-1.045Zm9.9,4.153V-104.8h-9.978v1.175Zm-7.993-16.9h2.952v-1.62h-2.952Zm2.246,6.975h2.194c.706-.418,1.411-.836,2.064-1.28h-4.258Zm3.553-6.975h3.03v-1.62H362.8Z" fill="#fff"/>
        </g>
      </g>
      <g id="组_251" data-name="组 251">
        <path id="路径_1626" data-name="路径 1626" d="M156.956-113.978a17.915,17.915,0,0,1-17.915,17.915,17.915,17.915,0,0,1-17.915-17.915,17.915,17.915,0,0,1,17.915-17.915A17.915,17.915,0,0,1,156.956-113.978Z" fill="#fff"/>
        <g id="组_249" data-name="组 249">
          <path id="路径_1627" data-name="路径 1627" d="M155.28-107.12a17.659,17.659,0,0,1-16.3,10.862,17.658,17.658,0,0,1-16.212-10.652h14.07l4.932-7.262s.261-.455.585-.066,5.919,7.206,5.919,7.206l7.006-.088" fill="#7db33d"/>
          <path id="路径_1628" data-name="路径 1628" d="M155.28-107.12a17.659,17.659,0,0,1-16.3,10.862,17.658,17.658,0,0,1-16.212-10.652h14.07l4.932-7.262s.261-.455.585-.066,5.919,7.206,5.919,7.206l7.006-.088" fill="#7db33d" stroke="#85c538" stroke-width="0.159"/>
        </g>
        <path id="路径_1629" data-name="路径 1629" d="M156.372-110.862a17.732,17.732,0,0,0,.263-3.05,17.655,17.655,0,0,0-17.655-17.656,17.656,17.656,0,0,0-17.656,17.656q0,.326.011.648h6.156l7.01-10.644s.26-.78,1.039-.131a14.779,14.779,0,0,1,1.623,1.688l-7.335,10.775h-8.5l.194,1.169h8.893l10.97-16.358a.657.657,0,0,1,1.168-.13c.714.779,12.073,16.1,12.073,16.1Z" fill="#007dc6"/>
        <path id="路径_1630" data-name="路径 1630" d="M156.372-110.862a17.732,17.732,0,0,0,.263-3.05,17.655,17.655,0,0,0-17.655-17.656,17.656,17.656,0,0,0-17.656,17.656q0,.326.011.648h6.156l7.01-10.644s.26-.78,1.039-.131a14.779,14.779,0,0,1,1.623,1.688l-7.335,10.775h-8.5l.194,1.169h8.893l10.97-16.358a.657.657,0,0,1,1.168-.13c.714.779,12.073,16.1,12.073,16.1Z" fill="none" stroke="#338bbc" stroke-width="0.159"/>
        <g id="组_250" data-name="组 250">
          <path id="路径_1631" data-name="路径 1631" d="M121.908-109.3h11.62l7.919-11.943s.39-.52.908.065,9.412,11.618,9.412,11.618l.3.3h4.052l-.26.742h-4.22l-9.477-11.361s-.259-.519-.649.131-7.257,11.23-7.257,11.23H122.181Z" fill="#7db33d"/>
          <path id="路径_1632" data-name="路径 1632" d="M121.908-109.3h11.62l7.919-11.943s.39-.52.908.065,9.412,11.618,9.412,11.618l.3.3h4.052l-.26.742h-4.22l-9.477-11.361s-.259-.519-.649.131-7.257,11.23-7.257,11.23H122.181Z" fill="#7db33d" stroke="#85c538" stroke-width="0.159"/>
        </g>
      </g>
    </g>
  </g>
</svg>
