<svg xmlns="http://www.w3.org/2000/svg" width="78.27" height="72.323" viewBox="0 0 78.27 72.323">
  <g id="position" transform="translate(-871.712 -471.345)">
    <path id="路径_867" data-name="路径 867" d="M941.55,529.021c.014-.183.021-.365.021-.547a7.864,7.864,0,0,0-6.718-7.482l2.111-6.231a11.553,11.553,0,0,0,1.068-2.818c.537-2.394-.147-3.815-1-4.644l1.471-6.054a.875.875,0,0,0,.088.008.979.979,0,0,0,.314-1.907l-3.846-1.3a.978.978,0,0,0-.835,1.755l-2.509,5.7c-3.428.4-4.339,5.052-4.483,5.965l-.815,2.407a14.1,14.1,0,0,0-9.539-3.615,13.76,13.76,0,0,0-11.074,5.286,14.3,14.3,0,0,0-2.72-.421q.1-.516.207-1l2.361.811.318-.926.319-.926-2.474-.85c.2-.6.412-1.159.633-1.668l1.138.791,1.118-1.608-1.37-.952c.263-.455.521-.851.761-1.189a10.3,10.3,0,0,0,4.506,1.221,4.476,4.476,0,0,0,3.07-.984.98.98,0,0,0-.183-1.553l-5.112-2.984-2.609-5.313a.979.979,0,0,0-1.535-.3c-.116.1-2.788,2.619.193,8.689a.826.826,0,0,0,.051.087c-.248.347-.509.742-.773,1.187l-1.5-1.042-1.118,1.608,1.706,1.185a20.874,20.874,0,0,0-.848,2.177l-2.715-.933-.636,1.853,2.821.969q-.187.793-.334,1.667a14.2,14.2,0,0,0-2.205.352l-.314-.047-.019.131a12.476,12.476,0,0,0-9.069,8.786,5.625,5.625,0,0,1-1.56-.824c-.028-.02-.056-.04-.083-.061l-.155-.128c-.044-.038-.088-.076-.131-.115s-.083-.076-.124-.115-.1-.1-.155-.157c-.031-.032-.062-.064-.091-.1-.081-.088-.159-.179-.233-.273-.085-.109-.164-.221-.24-.335-.015-.023-.031-.046-.046-.07-.068-.106-.133-.215-.193-.326-.018-.033-.035-.066-.052-.1-.051-.1-.1-.2-.144-.3-.019-.043-.036-.087-.054-.13-.036-.086-.069-.174-.1-.262-.017-.049-.034-.1-.05-.147-.033-.1-.063-.208-.09-.313-.015-.057-.028-.115-.041-.172-.016-.074-.031-.148-.044-.222s-.03-.172-.041-.259-.019-.143-.026-.216-.013-.129-.017-.194c-.007-.1-.011-.209-.013-.315,0-.067,0-.135,0-.2s0-.127.007-.191c.005-.109.013-.217.024-.326a7.378,7.378,0,0,1,1.1-3.155.979.979,0,0,0-.631-1.474,7.856,7.856,0,0,0-2.52-.119,4.168,4.168,0,0,0-3.847,3.11l-.016.044a22.14,22.14,0,0,1,.224-4.66l-2.184.533a6.691,6.691,0,0,0,.23,2.344,4.84,4.84,0,0,0-2.941-1.136,4.409,4.409,0,0,0-3.239,1.562.978.978,0,0,0-.263.587l-.01.109a.98.98,0,0,0,.158.623,4.223,4.223,0,0,0,3.6,2.155h0c.13,0,.258-.008.385-.019a4.716,4.716,0,0,0-1.775,2.355,7.829,7.829,0,0,0-.481,2.476.98.98,0,0,0,1.283.962,7.613,7.613,0,0,1,2.368-.386c.228,0,.452.012.671.032a6.848,6.848,0,0,1,3.982,2.088q.117.15.222.306c.012.017.022.035.033.052s.037.06.056.09a8.682,8.682,0,0,0-6.521,8.13c0,4.71,4.212,8.541,9.39,8.541h57.862c4.026,0,7.035-3.835,7.035-7.264C949.982,532.22,946.546,529.248,941.55,529.021Zm-36.563-28.169,1.758,3.581a.98.98,0,0,0,.385.414l3.46,2.02a7.88,7.88,0,0,1-3.181-.8q-.621-.282-1.283-.661l-.008-.008c-.094-.194-.178-.381-.258-.565A8.628,8.628,0,0,1,904.987,500.852Zm20.5,37.3-.238.1a3.041,3.041,0,0,1-1.586.2l-.358-.05a3.012,3.012,0,0,1-.974-.309l-2.085-1.077a3.288,3.288,0,0,0-1.527-.355,5.113,5.113,0,0,0-1.06.121l1.2-.836a1.642,1.642,0,0,1,1.347-.24c.167.044.347.1.539.16a6.1,6.1,0,0,0,1.819.367,2.65,2.65,0,0,0,1.722-.6.976.976,0,0,0,.216-.252h0l.018-.029.005-.01,1.7-2.8a.961.961,0,0,0,.056-.086l1.672-3.065.074-.135a3.253,3.253,0,0,1,1.307-1.3l.2-.1,1.017-.544c.042-.023.082-.048.123-.072a3.7,3.7,0,0,0,.843-.672l.658-.707.336-.361.142.06.085.267-.512.505a2.057,2.057,0,0,0-.413.6,2.292,2.292,0,0,0-.16.473,2.184,2.184,0,0,0,.075,1.242,2.027,2.027,0,0,1,.121.484,3.61,3.61,0,0,1-.418,1.783c-.106.258-.216.525-.31.8a8.12,8.12,0,0,1-.477,1.088c-.047.093-.093.187-.139.281l-2.376,2.9h0c-.009.012-.019.022-.028.034a6.265,6.265,0,0,1-2.61,2.128Zm-2.5-4.408c.084-.015.168-.032.252-.05l-.056.092C923.115,533.768,923.048,533.755,922.984,533.74Zm8.729,2.593a.984.984,0,0,1-.222-.242l1.095.58A1.974,1.974,0,0,1,931.713,536.333Zm1.326,2.352h-.046a4.614,4.614,0,0,1-1.469-.226,1.741,1.741,0,0,1-.477-.245A4.874,4.874,0,0,0,933.039,538.685Zm8.753,3.024a1.529,1.529,0,0,0,.441-.353,1.317,1.317,0,0,0-.853-2.165l-.394-.044a4.769,4.769,0,0,1-1.785-.859c-.175-.113-.348-.225-.517-.329-.074-.045-.147-.088-.219-.13l.1-.01a1.257,1.257,0,0,0,.334-.041l.576-.15a1.275,1.275,0,0,0,.877-.8,1.338,1.338,0,0,0-.194-1.247.986.986,0,0,0-.537-.373l-2.61-.711a1.427,1.427,0,0,0-.253-.053,2.72,2.72,0,0,0-.341-.021,5.889,5.889,0,0,0-1.65.315,4.641,4.641,0,0,1-1.123.24.929.929,0,0,1-.11-.006,2.4,2.4,0,0,1-1.393-.766c.074-.168.16-.339.251-.522a10.072,10.072,0,0,0,.583-1.341c.073-.219.165-.444.263-.683a4.654,4.654,0,0,0,.317-3.7.387.387,0,0,1,.043-.226l.619-.611a1.708,1.708,0,0,0,.429-1.738l-.268-.841a.977.977,0,0,0-.523-.592l-.03-.014-.826-.348c-.016-.007-.033-.012-.049-.018a1.547,1.547,0,0,0-1.679.389l-1.192,1.281a1.753,1.753,0,0,1-.456.351l-1.211.648a5.148,5.148,0,0,0-1.166.852,5.212,5.212,0,0,0-.674.806c-.093.138-.183.279-.263.426l-.239.438-1.334,2.443a9.532,9.532,0,0,1-2.826.682,1.825,1.825,0,0,1-.763-.14,3.684,3.684,0,0,0-2.113-1.144,1.161,1.161,0,0,0-.966.491,1.791,1.791,0,0,0-.031,1.671,2.965,2.965,0,0,0,.706,1.087,3.594,3.594,0,0,0-1,.488l-3.175,2.212a2.476,2.476,0,0,1-.556.291l-.664.147a1.2,1.2,0,0,0-.176,2.28l.159.062a3.5,3.5,0,0,0,2.283.088l1.62-.495a5.514,5.514,0,0,1,1.488-.3,1.337,1.337,0,0,1,.628.136l2.085,1.077a4.974,4.974,0,0,0,1.6.509l.358.05a4.995,4.995,0,0,0,2.611-.336l.233-.1h0a7.771,7.771,0,0,0,2.37-1.567,4.362,4.362,0,0,0,2.32,1.937,6.594,6.594,0,0,0,2.066.32c.468,0,.92-.042,1.357-.082.46-.043.935-.087,1.459-.087h.04l.31,0a2.631,2.631,0,0,1,1.352.276.959.959,0,0,0,.128.075,3.755,3.755,0,0,1,.511.313,4.063,4.063,0,0,0,1.1.571H885.085c-4.1,0-7.431-2.952-7.431-6.582a6.75,6.75,0,0,1,5.287-6.3h.005a8.262,8.262,0,0,1,.954-.2h0a8.382,8.382,0,0,1,.986-.08c.065,0,.129,0,.2,0h5.065a.979.979,0,0,0,.978-1.039c-.012-.2-.018-.375-.018-.545,0-.078.005-.154.007-.231l0-.07a8.793,8.793,0,0,1,.285-1.951,10.513,10.513,0,0,1,7.563-7.219,12.192,12.192,0,0,1,1.852-.354,12.565,12.565,0,0,1,1.423-.084c.161,0,.322,0,.483.01l.076,0a12.283,12.283,0,0,1,2.606.4c.168.044.335.091.5.143.03.009.06.013.09.02a.977.977,0,0,0,1.015-.412,11.881,11.881,0,0,1,9.862-5,12.042,12.042,0,0,1,8.842,3.715h0a10.78,10.78,0,0,1,.733.885h0a9.936,9.936,0,0,1,.679,1.046v0a9.471,9.471,0,0,1,.782,1.8,9.129,9.129,0,0,1,.289,1.167,8.943,8.943,0,0,1,.127,1.092c.009.167.014.335.014.5,0,.091,0,.182-.007.272l0,.075a.98.98,0,0,0,1.454.892,6.841,6.841,0,0,1,1.944-.713c.137-.029.275-.053.414-.073a7.29,7.29,0,0,1,1.046-.079h.015a7.214,7.214,0,0,1,.971.066l.038.006a5.949,5.949,0,0,1,5.4,5.6,5.076,5.076,0,0,1-.163,1.267.98.98,0,0,0,.948,1.224h.531c3.417,0,7.094,1.7,7.094,5.439,0,2.4-2.264,5.3-5.076,5.3Zm-66.044-19.116c.048-.181.1-.358.167-.529a2.857,2.857,0,0,1,1.034-1.419,3.068,3.068,0,0,1,1.288-.325,4.5,4.5,0,0,0,2.228-.7.884.884,0,0,0,.085-.066,4.508,4.508,0,0,0,1.2-2,3.074,3.074,0,0,1,.62-1.175,2.855,2.855,0,0,1,1.624-.668,5.224,5.224,0,0,1,.552-.037,9.333,9.333,0,0,0-.39,1.106,2.49,2.49,0,0,0-2.3,1.725c-.619,2.14-.619,2.14-1.71,2.14-.231,0-.511-.012-.856-.036a2.53,2.53,0,0,0-2.533,1.873A9.544,9.544,0,0,0,875.748,522.593Zm10.518,2.135c.078.07.158.137.238.2l.049.04a7.311,7.311,0,0,0,.961.657c-.02,0-.04.006-.058.007a2.779,2.779,0,0,0-2.054.952h-.317c-.281,0-.559.014-.833.036h0c-.065-.132-.132-.262-.2-.389l-.043-.073c-.043-.074-.087-.147-.133-.22-.031-.049-.064-.1-.1-.145s-.068-.1-.1-.155c-.072-.1-.146-.2-.224-.3-.027-.034-.055-.065-.082-.1a.82.82,0,0,0,.316-.147.873.873,0,1,1,1.358-1.068.821.821,0,0,0,.256-.359c.034.044.066.089.1.133l0,.005.015.019c.075.094.151.185.23.275.025.029.052.057.078.086.061.067.122.134.185.2.028.029.057.057.086.085.065.065.131.129.2.191Zm-7.34-2.093a.388.388,0,0,1,.207-.069h.019c.4.028.712.041.993.041,2.564,0,2.951-1.338,3.591-3.554a.335.335,0,0,1,.09-.145l0-.005a8.1,8.1,0,0,0,.066,1.3l.01.074a7.748,7.748,0,0,0,.177.878c.014.051.028.1.043.152.034.121.072.241.113.36.025.072.05.144.077.216s.051.132.077.2l.045.106a1.929,1.929,0,0,0-.716-.173l-.269,0-.062.263a.832.832,0,1,1-1.028.807l-.269,0-.061.262a1.877,1.877,0,0,0-.019.627c0,.02.006.04.009.06a10.451,10.451,0,0,0-3.162-1.344A.588.588,0,0,1,878.926,522.635Zm53.381-15.2a.98.98,0,0,0,.949-.583l2.73-6.2.594.2-1.6,6.583a.979.979,0,0,0,.4,1.04c1.836,1.252.292,4.523-.084,5.253-.737-.33-1.83-.79-3.06-1.206-1.2-.408-2.3-.693-3.055-.87.144-.8.881-4.222,3-4.222C932.225,507.429,932.266,507.43,932.307,507.433Zm2.313,8.138-1.787,5.277a9.517,9.517,0,0,0-1.029.1c-.5-.13-1.075-.291-1.68-.484a11.5,11.5,0,0,0-2.2-4.943l.667-1.971.008-.021a31.229,31.229,0,0,1,3.009.848C932.832,514.79,933.928,515.258,934.62,515.571Zm-60.638.833a2.1,2.1,0,0,1,1.246-.441,2.887,2.887,0,0,1,1.713.7,3.2,3.2,0,0,1-1.47.421A2.029,2.029,0,0,1,873.982,516.4Zm4.892,1.32c.05.162.1.317.146.461a4.466,4.466,0,0,1-1.007.19l-.155.018A6.51,6.51,0,0,0,878.874,517.724Z" fill="#fff"/>
    <path id="路径_868" data-name="路径 868" d="M911.451,522.733c-.062,0-.124,0-.188.007l-6.272.455a.979.979,0,0,0-.6.258,3.781,3.781,0,0,0-1.142,2.642,3.937,3.937,0,0,0,1.274,2.754c-.384.341-.789.729-1.205,1.165l-3.4-2.624-.6.775-.6.775,3.308,2.555a22.821,22.821,0,0,0-1.995,2.976l1.708.96a20.569,20.569,0,0,1,1.839-2.736l3.416,2.639,1.2-1.55-3.316-2.562c.412-.421.809-.789,1.178-1.106a5.472,5.472,0,0,0,3.071,1.106c3.2,0,4.283-3.864,4.493-4.777a2.5,2.5,0,0,0-2.178-3.712Zm-4.335,5.727c-.087-.06-.174-.124-.263-.19q-.355-.267-.729-.6l-.052-.05a2.239,2.239,0,0,1-.859-1.522,1.691,1.691,0,0,1,.329-.977l1.328-.1a2.541,2.541,0,0,0,.186,3.112,2.431,2.431,0,0,0,.188.193l.022.022a2.538,2.538,0,0,0,3.52-.119,2.053,2.053,0,0,1-1.65,1.033,3.03,3.03,0,0,1-1.383-.411A6.439,6.439,0,0,1,907.116,528.46Zm2.286-1.611a.584.584,0,0,1-.436.194.575.575,0,0,1-.39-.15.585.585,0,0,1,.391-1.02.575.575,0,0,1,.391.15A.585.585,0,0,1,909.4,526.849Zm1.435-2.114.568-.041.046,0a.526.526,0,0,1,.47.287.519.519,0,0,1-.028.554.967.967,0,0,0-.149.364,7.938,7.938,0,0,1-.258.9A2.545,2.545,0,0,0,910.837,524.735Z" fill="#fff"/>
    <path id="路径_869" data-name="路径 869" d="M929.359,479.1a.976.976,0,0,0,.451-.111l.134-.069a.979.979,0,0,0-.883-1.748l-.155.08a.979.979,0,0,0,.453,1.848Z" fill="#fff"/>
    <path id="路径_870" data-name="路径 870" d="M925.956,502.76c.024-.1.047-.2.071-.3a.979.979,0,1,0-1.9-.456c-.025.1-.05.207-.074.311a.98.98,0,0,0,.731,1.177,1.009,1.009,0,0,0,.223.025A.978.978,0,0,0,925.956,502.76Z" fill="#fff"/>
    <path id="路径_871" data-name="路径 871" d="M926.719,499.293c.016-.115.03-.228.042-.337a.979.979,0,1,0-1.946-.217c-.011.093-.023.189-.036.287a.98.98,0,0,0,.837,1.1,1.019,1.019,0,0,0,.134.009A.979.979,0,0,0,926.719,499.293Z" fill="#fff"/>
    <path id="路径_872" data-name="路径 872" d="M923.723,493.993a.978.978,0,0,0-.141-1.377c-.075-.062-.15-.124-.226-.189a.979.979,0,1,0-1.268,1.493c.086.074.172.145.257.214a.98.98,0,0,0,1.378-.141Z" fill="#fff"/>
    <path id="路径_873" data-name="路径 873" d="M924.427,496.03c.041.063.078.128.112.193a.978.978,0,0,0,.872.532.968.968,0,0,0,.446-.108.979.979,0,0,0,.424-1.318c-.061-.119-.129-.237-.2-.351a.98.98,0,0,0-1.653,1.052Z" fill="#fff"/>
    <path id="路径_874" data-name="路径 874" d="M925.385,505.764a.98.98,0,0,0-1.94-.273c-.015.107-.029.215-.043.322a.979.979,0,0,0,.844,1.1,1.12,1.12,0,0,0,.128.008.979.979,0,0,0,.97-.853C925.357,505.965,925.371,505.865,925.385,505.764Z" fill="#fff"/>
    <path id="路径_875" data-name="路径 875" d="M920.027,489.689a.979.979,0,0,0-.366,1.336c.058.1.116.2.175.3a.979.979,0,0,0,1.671-1.022c-.049-.08-.1-.161-.145-.245A.978.978,0,0,0,920.027,489.689Z" fill="#fff"/>
    <path id="路径_876" data-name="路径 876" d="M920.606,485.217a.978.978,0,0,0,1.372-.187c.058-.076.118-.152.178-.228a.979.979,0,1,0-1.527-1.225c-.072.089-.142.178-.21.268A.98.98,0,0,0,920.606,485.217Z" fill="#fff"/>
    <path id="路径_877" data-name="路径 877" d="M923.607,482.938a.976.976,0,0,0,.633-.233l.232-.195A.979.979,0,1,0,923.223,481c-.084.069-.167.139-.25.21a.979.979,0,0,0,.634,1.726Z" fill="#fff"/>
    <path id="路径_878" data-name="路径 878" d="M919.649,488.52a1.082,1.082,0,0,0,.127.008.98.98,0,0,0,.97-.854c.01-.081.024-.163.04-.244a.979.979,0,0,0-1.921-.383c-.025.125-.046.252-.062.376A.979.979,0,0,0,919.649,488.52Z" fill="#fff"/>
    <path id="路径_879" data-name="路径 879" d="M926.384,480.871a.975.975,0,0,0,.539-.163l.255-.167a.979.979,0,1,0-1.064-1.644c-.09.058-.181.117-.272.178a.979.979,0,0,0,.542,1.8Z" fill="#fff"/>
    <path id="路径_880" data-name="路径 880" d="M924.169,508.121h-.008a.979.979,0,0,0-.971.988c0,.058,0,.117,0,.175a.979.979,0,0,0,.978.959h.021a.979.979,0,0,0,.959-1c0-.051,0-.1,0-.152A.98.98,0,0,0,924.169,508.121Z" fill="#fff"/>
    <path id="路径_881" data-name="路径 881" d="M880.837,491.308l.149.015c.035,0,.07.005.1.005a.979.979,0,0,0,.1-1.953l-.174-.017a.979.979,0,1,0-.183,1.95Z" fill="#fff"/>
    <path id="路径_882" data-name="路径 882" d="M887.794,508.9a.98.98,0,0,0-.417,1.321c.064.122.134.242.209.358a.979.979,0,0,0,1.643-1.066,2.261,2.261,0,0,1-.114-.2A.98.98,0,0,0,887.794,508.9Z" fill="#fff"/>
    <path id="路径_883" data-name="路径 883" d="M883.983,491.912l.3.08a.979.979,0,0,0,.51-1.891l-.318-.084a.979.979,0,1,0-.493,1.895Z" fill="#fff"/>
    <path id="路径_884" data-name="路径 884" d="M887.245,492.941c.1.036.2.073.292.111a.979.979,0,1,0,.7-1.829l-.307-.117a.98.98,0,0,0-.686,1.835Z" fill="#fff"/>
    <path id="路径_885" data-name="路径 885" d="M887.346,505.969c-.05.115-.1.235-.141.354a.979.979,0,1,0,1.841.669q.043-.12.1-.24a.98.98,0,0,0-1.8-.783Z" fill="#fff"/>
    <path id="路径_886" data-name="路径 886" d="M890.335,494.325c.09.048.179.1.267.147a.978.978,0,0,0,1.333-.373.979.979,0,0,0-.373-1.334l-.294-.162a.979.979,0,0,0-.933,1.722Z" fill="#fff"/>
    <path id="路径_887" data-name="路径 887" d="M892.287,502.414a.979.979,0,0,0,1.381.106c.09-.078.178-.155.262-.232a.979.979,0,1,0-1.32-1.446c-.07.063-.142.127-.217.191A.979.979,0,0,0,892.287,502.414Z" fill="#fff"/>
    <path id="路径_888" data-name="路径 888" d="M893.16,496.39a.98.98,0,0,0,1.448-1.32c-.081-.089-.165-.176-.252-.263a.979.979,0,1,0-1.386,1.383C893.036,496.256,893.1,496.322,893.16,496.39Z" fill="#fff"/>
    <path id="路径_889" data-name="路径 889" d="M894.059,498.512c-.007.071-.019.144-.033.216a.979.979,0,0,0,.763,1.156,1.021,1.021,0,0,0,.2.02.979.979,0,0,0,.958-.783,3.721,3.721,0,0,0,.063-.416.979.979,0,1,0-1.948-.193Z" fill="#fff"/>
    <path id="路径_890" data-name="路径 890" d="M891.38,511.578A.979.979,0,1,0,890,512.971l.223.222a.979.979,0,1,0,1.384-1.386Z" fill="#fff"/>
    <path id="路径_891" data-name="路径 891" d="M890.194,504.837a.975.975,0,0,0,.635-.234c.072-.062.147-.123.223-.184a.979.979,0,0,0-1.222-1.53c-.093.074-.184.149-.271.224a.979.979,0,0,0,.635,1.724Z" fill="#fff"/>
    <path id="路径_892" data-name="路径 892" d="M892.475,514.1a.979.979,0,0,0-.073,1.383l.106.117a.979.979,0,1,0,1.462-1.3l-.112-.125A.979.979,0,0,0,892.475,514.1Z" fill="#fff"/>
    <path id="路径_893" data-name="路径 893" d="M909.068,484.256c.052-.064.084-.1.089-.106a.979.979,0,0,0-1.482-1.28s-.044.05-.121.143a.979.979,0,1,0,1.514,1.243Z" fill="#fff"/>
    <path id="路径_894" data-name="路径 894" d="M905.826,487.555a.979.979,0,0,0,1.32-.418c.048-.093.1-.184.146-.275a.979.979,0,1,0-1.717-.941c-.057.1-.113.208-.168.314A.979.979,0,0,0,905.826,487.555Z" fill="#fff"/>
    <path id="路径_895" data-name="路径 895" d="M907.811,491.648a.979.979,0,0,0-.66,1.844c.125.045.255.086.388.122a.979.979,0,0,0,.521-1.888C907.973,491.7,907.889,491.676,907.811,491.648Z" fill="#fff"/>
    <path id="路径_896" data-name="路径 896" d="M905.38,491.172a.954.954,0,0,0,.13-.008.978.978,0,0,0,.841-1.1c-.009-.074-.015-.151-.017-.23a.979.979,0,1,0-1.958.053,4.151,4.151,0,0,0,.034.435A.979.979,0,0,0,905.38,491.172Z" fill="#fff"/>
    <path id="路径_897" data-name="路径 897" d="M913.682,496.918c.008-.132.012-.262.012-.388v0a.979.979,0,0,0-1.959,0c0,.09,0,.181-.008.273a.979.979,0,0,0,.92,1.035l.058,0A.98.98,0,0,0,913.682,496.918Z" fill="#fff"/>
    <path id="路径_898" data-name="路径 898" d="M912.1,494.223a.98.98,0,0,0-.229-1.366,4.322,4.322,0,0,0-.368-.234.979.979,0,0,0-.964,1.705,2.151,2.151,0,0,1,.2.124.979.979,0,0,0,1.366-.229Z" fill="#fff"/>
    <path id="路径_899" data-name="路径 899" d="M911.664,501.224a.98.98,0,0,0,1.212-.67l.045-.153a.979.979,0,1,0-1.88-.549l-.047.16A.98.98,0,0,0,911.664,501.224Z" fill="#fff"/>
    <path id="路径_900" data-name="路径 900" d="M931.5,476.481a.62.62,0,0,0,.208.1.585.585,0,0,0-.042.221c0,.934,1.5,3.03,2.764,3.027s2.292-.762,2.289-1.7-1.03-1.687-2.3-1.684c-.752,0-1.58-.2-2.131-.173.341-.434.654-1.229,1.089-1.841a1.769,1.769,0,1,0-2.753-1.959C929.9,473.507,930.744,475.94,931.5,476.481Z" fill="#fff"/>
    <path id="路径_901" data-name="路径 901" d="M909.417,481.484a.626.626,0,0,0,.216-.064.606.606,0,0,0,.123.188c.632.687,3.151,1.222,4.083.364a1.769,1.769,0,1,0-2.289-2.486c-.551.508-1.3.918-1.688,1.31-.042-.55-.348-1.347-.44-2.091-.156-1.256-1.033-2.182-1.959-2.068a2.063,2.063,0,0,0-1.4,2.483C906.224,480.377,908.491,481.6,909.417,481.484Z" fill="#fff"/>
    <path id="路径_902" data-name="路径 902" d="M876.446,493.623c1.252-.19,2.411-2.49,2.27-3.413a.6.6,0,0,0-.07-.214.606.606,0,0,0,.185-.128c.669-.651,1.134-3.184.251-4.091a1.769,1.769,0,1,0-2.421,2.356c.522.538.953,1.275,1.355,1.652-.548.057-1.336.385-2.077.5-1.252.19-2.154,1.092-2.013,2.014A2.061,2.061,0,0,0,876.446,493.623Z" fill="#fff"/>
  </g>
</svg>
