<svg id="7830e8e7-73a3-4376-b536-e6f9d88a136f" data-name="圖層 1" xmlns="http://www.w3.org/2000/svg" width="53" height="30" viewBox="0 0 53 30"><title>tubeicon2</title><path d="M845.15,4723.33c-0.77,4.31-2.6,7.45-4.9,9.12a6.09,6.09,0,0,0-1.23-1.2,11,11,0,0,0,4.27-6.71h-3.73V4723h4.29l0.28-.07Zm7.88-.46a44.74,44.74,0,0,1-3.7,3.6,12.65,12.65,0,0,0,5,4.49,5.94,5.94,0,0,0-1.13,1.39,14.24,14.24,0,0,1-5.76-6.37v6a1.57,1.57,0,0,1-.75,1.69,6.57,6.57,0,0,1-2.7.34,7,7,0,0,0-.57-1.7c0.92,0,1.77,0,2,0a0.31,0.31,0,0,0,.38-0.36v-13h1.6v3.91a15.73,15.73,0,0,0,1.15,2.44,26.47,26.47,0,0,0,3-3.42Z" transform="translate(-828 -4712)" fill="#96deff"/><path d="M858.53,4726.46c-0.67-.46-2-1.24-3-1.77l0.83-1.11a29.69,29.69,0,0,1,3,1.62Zm-2.47,6.27a43.58,43.58,0,0,0,3.08-5.17l1.13,1c-0.85,1.7-1.95,3.67-2.9,5.21Zm3.24-10.67c-0.67-.47-2-1.26-3-1.82l0.85-1.1c1,0.47,2.36,1.21,3.08,1.67Zm4.63,2.93c-0.16.8-.34,1.64-0.52,2.41h5.89s0,0.44,0,.64c-0.23,3.16-.49,4.52-1.06,5.06a2.28,2.28,0,0,1-1.67.57c-0.65,0-1.85,0-3.09,0a2.93,2.93,0,0,0-.59-1.46c1.29,0.11,2.69.13,3.21,0.13a1.5,1.5,0,0,0,.83-0.15c0.38-.29.57-1.28,0.77-3.32h-6.17c0.31-1,.69-2.54.93-3.85h-2.28v-1.44h10.33V4725h-6.53Zm5.42-3.68h-8.14v-1.44h8.14v1.44Z" transform="translate(-828 -4712)" fill="#96deff"/><path d="M881,4742H828v-30h53v30Zm-51-2h49v-26H830v26Z" transform="translate(-828 -4712)" fill="#96deff"/></svg>