<svg id="7cc70166-910f-4306-b0d5-4720166c20b8" data-name="圖層 1" xmlns="http://www.w3.org/2000/svg" width="35.71" height="35.71" viewBox="0 0 35.71 35.71"><title>tube3</title><path d="M520.45,4705.16a17.85,17.85,0,1,1,17.85-17.85A17.87,17.87,0,0,1,520.45,4705.16Zm0-34.11a16.25,16.25,0,1,0,16.25,16.25A16.27,16.27,0,0,0,520.45,4671Z" transform="translate(-502.6 -4669.45)" fill="#c99664"/><path d="M527.58,4683.87a11.46,11.46,0,0,1-1.75,1.08,9.06,9.06,0,0,0,2.32.92,5.16,5.16,0,0,0-.86,1.14,8.55,8.55,0,0,1-2.12-.92v1.34c0,0.34,0,.46.24,0.46h0.76a2.62,2.62,0,0,0,.73-0.08c0,0.32.05,0.75,0.1,1a2.87,2.87,0,0,1-.81.08h-0.93c-1.1,0-1.31-.44-1.31-1.51v-0.88h-1.44v0.12a2.82,2.82,0,0,1-1.41,2.63,5,5,0,0,0-.85-0.85v0.31h-2.95c-0.08.36-.17,0.69-0.25,1h3.17l-0.05.54c-0.2,2.14-.39,3.08-0.76,3.46a1.49,1.49,0,0,1-1.07.42c-0.36,0-1.07,0-1.83,0a2.82,2.82,0,0,0-.36-1.2,13.57,13.57,0,0,0,1.63.08,0.68,0.68,0,0,0,.53-0.14,4.1,4.1,0,0,0,.47-2.08h-3.32c0.27-.88.59-2.15,0.81-3.19H519v-1.17h-1.88a13,13,0,0,1-1.58.7,5.63,5.63,0,0,0-.59-0.86c-0.08,2.54-.41,5.73-1.54,8a5.74,5.74,0,0,0-1.2-.93c1.22-2.44,1.32-5.93,1.32-8.41v-5h6.09a4.15,4.15,0,0,0-.51-0.68l1.31-.66a7.58,7.58,0,0,1,1,1.34h6.39v1.31H515v3.7c0,0.36,0,.76,0,1.17a8.51,8.51,0,0,0,2.2-1.05,15.33,15.33,0,0,0-1.41-.93l0.83-.71a10.76,10.76,0,0,1,1.53.93,6.17,6.17,0,0,0,1.08-1.24h-3.07V4682h3.8l0.24-.05,0.85,0.37a7.64,7.64,0,0,1-2.32,3.12h1.56v2.95a1.84,1.84,0,0,0,1.05-1.78v-1.19h2.9a8.49,8.49,0,0,1-2.59-3.56l1.19-.29a5.54,5.54,0,0,0,.71,1.27,12.09,12.09,0,0,0,1.46-1.08l1,0.63a13.37,13.37,0,0,1-1.85,1.22,8,8,0,0,0,.8.71,15.81,15.81,0,0,0,1.63-1.12Zm-1.1,5.73a6,6,0,0,1-1.48,2.46c0.71,0.42,1.37.83,1.85,1.19l-0.86.95a18.6,18.6,0,0,0-2-1.32,9.78,9.78,0,0,1-3.36,1.42,4.29,4.29,0,0,0-.64-1.05,9.4,9.4,0,0,0,2.86-1c-0.76-.42-1.54-0.83-2.24-1.17l0.59-.63h-0.58v-1.05h4.83l0.2-.05Zm-4.59.83c0.64,0.32,1.36.66,2.05,1.05a5.8,5.8,0,0,0,.88-1.05h-2.93Z" transform="translate(-502.6 -4669.45)" fill="#c99664"/></svg>