<svg id="a0f286fc-3b9c-4049-8a52-3ba3ec6a394b" data-name="圖層 1" xmlns="http://www.w3.org/2000/svg" width="35.71" height="35.71" viewBox="0 0 35.71 35.71"><title>tube1</title><path d="M435.19,4705.16A17.85,17.85,0,1,1,453,4687.3,17.87,17.87,0,0,1,435.19,4705.16Zm0-34.11a16.25,16.25,0,1,0,16.25,16.25A16.27,16.27,0,0,0,435.19,4671Z" transform="translate(-417.33 -4669.45)" fill="#5dff4a"/><path d="M429.26,4684.48H427.7v-3.93h6.41c-0.2-.51-0.46-1.07-0.7-1.53l1.66-.46c0.32,0.61.73,1.37,1,2h6v3.54h-1.63V4682h-2.9v2.44c0,0.47.1,0.64,0.58,0.64h2.73a7.79,7.79,0,0,0,1.46-.12c0,0.42.08,1,.15,1.41a7.93,7.93,0,0,1-1.58.1h-2.78c-1.68,0-2.12-.53-2.12-2.05V4682h-1.83c-0.24,2.92-1.15,4.36-5.61,5a4.21,4.21,0,0,0-.75-1.31c3.9-.47,4.56-1.46,4.75-3.73h-3.29v2.51Zm6.54,7.92h6.41v1.49H427.7v-1.49h6.46v-3.24h-4.8v-1.46H440.6v1.46h-4.8v3.24Z" transform="translate(-417.33 -4669.45)" fill="#5dff4a"/></svg>