<svg id="bfdc466d-6c13-4f9c-bc20-49c91759e548" data-name="圖層 3" xmlns="http://www.w3.org/2000/svg" width="108.75" height="108.71" viewBox="0 0 108.75 108.71"><title>tubebg3</title><ellipse cx="54.38" cy="54.32" rx="52.77" ry="52.71" fill="none" stroke="#ff9" stroke-miterlimit="10" stroke-width="3.22"/><path d="M722.15,4872.83a9,9,0,0,0,2.88,2.85,7.78,7.78,0,0,0-1,1.19,9.72,9.72,0,0,1-1.9-1.78v1h-4.44v-0.86a10.83,10.83,0,0,1-1.9,1.49,7.58,7.58,0,0,0-.68-1.32h-1.46v2.12h1.59v1.37h-1.59v2.68l2.05-.54,0.2,1.36c-2.17.63-4.51,1.27-6.27,1.76l-0.36-1.47,0.75-.17v-5.66h1.24v5.36l1-.27v-6.53h-2.31v-5.31h5.14v5.17a9.56,9.56,0,0,0,2.76-2.46h-2.07v-1.37h3a10.75,10.75,0,0,0,.75-1.81l1.37,0.36a10.81,10.81,0,0,1-.56,1.46h4.36v1.37h-2.49Zm-8.41-1.36h-2.51v2.61h2.51v-2.61Zm1.9,5.85h8.92v1.31h-5.61c-0.14.49-.27,1-0.42,1.47h5.2l-0.05.59c-0.22,2.32-.44,3.37-0.93,3.83a2,2,0,0,1-1.49.49,26.66,26.66,0,0,1-2.8,0,2.86,2.86,0,0,0-.58-1.36c1.19,0.1,2.44.12,2.92,0.12a1.43,1.43,0,0,0,.78-0.14,4.16,4.16,0,0,0,.59-2.22h-4.05v0h-1.49a27.11,27.11,0,0,0,.88-2.78h-1.86v-1.31Zm6.27-2.48a11.12,11.12,0,0,1-1.27-2h-1.08a11.69,11.69,0,0,1-1.49,2h3.85Z" transform="translate(-679.62 -4849.36)" fill="#ff9"/><path d="M731,4879a24.45,24.45,0,0,0-1-2.29V4885h-1.42v-7.42a17.17,17.17,0,0,1-1.7,4.07,8.42,8.42,0,0,0-.76-1.58,19,19,0,0,0,2.36-6h-2v-1.46h2.07v-3.2H730v3.2h1.83v1.44H730v0.51c0.44,0.66,1.7,2.8,2,3.31Zm6.51,2.37c1.39,0.71,3.34,1.76,4.36,2.44l-1,1.12c-1-.68-2.93-1.81-4.36-2.58l0.93-1h-0.7c-0.66,1.73-2,2.92-5,3.65a5.12,5.12,0,0,0-.83-1.27c2.34-.47,3.49-1.25,4.12-2.37h-3.64V4880h4.12a8.73,8.73,0,0,0,.2-1.22h-3.34v-5.36h8.32v5.36h-3.42a12.24,12.24,0,0,1-.19,1.22h4.37v1.32h-4Zm-3.9-9.34h-1.92v-1.29h1.92v-1.29H735v1.29h1.29V4872H735v1.07h-1.41V4872Zm0.27,3.58h5.32v-1h-5.32v1Zm0,2.09h5.32v-1h-5.32v1Zm4.22-5.68H736.8v-1.29h1.31v-1.27h1.41v1.27h2.15V4872h-2.15v1.08H738.1V4872Z" transform="translate(-679.62 -4849.36)" fill="#ff9"/><path d="M748.7,4879.75c-0.05-.27-0.12-0.59-0.22-0.95-3.8.56-4.39,0.7-4.75,0.9a14.56,14.56,0,0,0-.49-1.44,3.58,3.58,0,0,0,1.32-1.1,17.21,17.21,0,0,0,1.34-1.7,8.44,8.44,0,0,0-2.29.39c-0.08-.29-0.3-1-0.47-1.37a2.08,2.08,0,0,0,1-.92,22.29,22.29,0,0,0,2.27-4.22l1.41,0.59a26,26,0,0,1-2.59,4.29l1.64-.14a19.72,19.72,0,0,0,1.27-2.17l1.34,0.81a32.34,32.34,0,0,1-3.83,5.19l2.51-.32c-0.14-.49-0.3-1-0.47-1.44l1.19-.36a23.81,23.81,0,0,1,1.1,3.51Zm-3.48.81a18.74,18.74,0,0,1-.8,4.1,9.85,9.85,0,0,0-1.25-.46,17.35,17.35,0,0,0,.75-3.88Zm2-.29c0.2,1.15.41,2.63,0.47,3.63l-1.29.27a30.5,30.5,0,0,0-.42-3.66Zm1.83-.46a19.68,19.68,0,0,1,.85,2.78l-1.22.42a26.15,26.15,0,0,0-.78-2.85Zm9.7,3.42v1.42h-9.46v-1.42h1.41v-13h7v13h1.1Zm-6.61-11.53v2.83h4v-2.83h-4Zm4,4.24h-4v2.9h4V4876Zm-4,7.29h4v-3h-4v3Z" transform="translate(-679.62 -4849.36)" fill="#ff9"/><path d="M681.23,4905.53a52.77,52.77,0,0,0,105.53.08,48.85,48.85,0,0,0-.93-9.61H682.17A48,48,0,0,0,681.23,4905.53Z" transform="translate(-679.62 -4849.36)" fill="#ff9"/></svg>