<svg id="9b0d69af-20bc-48f3-900e-48ab33c00477" data-name="圖層 1" xmlns="http://www.w3.org/2000/svg" width="35.71" height="35.71" viewBox="0 0 35.71 35.71"><title>tube4</title><path d="M563.08,4705.16a17.85,17.85,0,1,1,17.85-17.85A17.87,17.87,0,0,1,563.08,4705.16Zm0-34.11a16.25,16.25,0,1,0,16.25,16.25A16.27,16.27,0,0,0,563.08,4671Z" transform="translate(-545.23 -4669.45)" fill="#b867ff"/><path d="M567.92,4689.38c0,0.44-.08.87-0.12,1.22h1.68v1.17h-1.85a3.65,3.65,0,0,1-.58,1.73,1.62,1.62,0,0,1-1.2.56,12.78,12.78,0,0,1-2.14,0,3,3,0,0,0-.34-1.1,14.75,14.75,0,0,0,1.75.07,0.62,0.62,0,0,0,.61-0.22,2.28,2.28,0,0,0,.37-1h-3.56a7.67,7.67,0,0,1-2.34,2.64,6.51,6.51,0,0,0-1.22-.85,7.21,7.21,0,0,0,1.85-1.8h-2v0h-1.53c0.12-.66.24-1.51,0.36-2.41H555v-1.2h2.78c0.08-.78.17-1.59,0.22-2.29h10.1s0,0.44,0,.61c0,0.61-.07,1.15-0.1,1.68h2.56v1.2h-2.65Zm2.2-4.24H555.51V4684H562V4683h-4.73v-1.1H562v-0.83h-5.75V4680H562v-1.27h1.54V4680h6.07v1.14h-6.07v0.83h5v1.1h-5V4684h6.59v1.15Zm-8.61,5.46a9.29,9.29,0,0,0,.41-1.22h-2.73c-0.05.42-.1,0.85-0.15,1.22h2.48Zm-2.19-2.42h2.8c0-.36.05-0.66,0.05-0.95v-0.17h-2.73Zm7,2.42c0.05-.36.08-0.76,0.12-1.22h-3a11.84,11.84,0,0,1-.34,1.22h3.2Zm-2.66-3.34c0,0.29,0,.58,0,0.92h2.92l0.07-1.12h-2.95v0.2Z" transform="translate(-545.23 -4669.45)" fill="#b867ff"/></svg>