<svg id="e3555205-44b5-4c52-8860-4203c739b0bf" data-name="圖層 1" xmlns="http://www.w3.org/2000/svg" width="35.71" height="35.71" viewBox="0 0 35.71 35.71"><title>tube2</title><path d="M477.82,4705.16a17.85,17.85,0,1,1,17.85-17.85A17.87,17.87,0,0,1,477.82,4705.16Zm0-34.11a16.25,16.25,0,1,0,16.25,16.25A16.27,16.27,0,0,0,477.82,4671Z" transform="translate(-459.97 -4669.45)" fill="#96deff"/><path d="M476,4683.24c-0.8,4.46-2.7,7.71-5.07,9.44a6.27,6.27,0,0,0-1.27-1.24,11.43,11.43,0,0,0,4.42-7h-3.87v-1.59h4.44l0.29-.07Zm8.15-.47a46.17,46.17,0,0,1-3.83,3.73,13.1,13.1,0,0,0,5.2,4.65,6.12,6.12,0,0,0-1.17,1.44,14.75,14.75,0,0,1-6-6.59v6.19a1.63,1.63,0,0,1-.78,1.75,6.81,6.81,0,0,1-2.8.36,7.19,7.19,0,0,0-.59-1.76c0.95,0.05,1.83.05,2.12,0a0.32,0.32,0,0,0,.39-0.37V4678.7h1.66v4.05a16.26,16.26,0,0,0,1.19,2.53,27.47,27.47,0,0,0,3.14-3.54Z" transform="translate(-459.97 -4669.45)" fill="#96deff"/></svg>