<svg id="4327d3bc-3ff7-45d6-9dbd-e4242c7e13b4" data-name="圖層 3" xmlns="http://www.w3.org/2000/svg" width="108.75" height="108.71" viewBox="0 0 108.75 108.71"><title>tubebg2</title><ellipse cx="54.38" cy="54.32" rx="52.77" ry="52.71" fill="none" stroke="#c99664" stroke-miterlimit="10" stroke-width="3.22"/><path d="M597.46,4874.61a11.46,11.46,0,0,1-1.75,1.08,9.06,9.06,0,0,0,2.32.92,5.16,5.16,0,0,0-.86,1.14,8.55,8.55,0,0,1-2.12-.92v1.34c0,0.34,0,.46.24,0.46h0.76a2.62,2.62,0,0,0,.73-0.08c0,0.32.05,0.75,0.1,1a2.87,2.87,0,0,1-.81.08h-0.93c-1.1,0-1.31-.44-1.31-1.51v-0.88h-1.44v0.12A2.82,2.82,0,0,1,591,4880a5,5,0,0,0-.85-0.85v0.31h-2.95c-0.08.36-.17,0.69-0.25,1h3.17l-0.05.54c-0.2,2.14-.39,3.08-0.76,3.46a1.49,1.49,0,0,1-1.07.42c-0.36,0-1.07,0-1.83,0a2.82,2.82,0,0,0-.36-1.2,13.57,13.57,0,0,0,1.63.08,0.68,0.68,0,0,0,.53-0.14,4.1,4.1,0,0,0,.47-2.08h-3.32c0.27-.88.59-2.15,0.81-3.19h2.75v-1.17H587a13,13,0,0,1-1.58.7,5.63,5.63,0,0,0-.59-0.86c-0.08,2.54-.41,5.73-1.54,8a5.74,5.74,0,0,0-1.2-.93c1.22-2.44,1.32-5.93,1.32-8.41v-5h6.09A4.15,4.15,0,0,0,589,4870l1.31-.66a7.58,7.58,0,0,1,1,1.34h6.39V4872H584.86v3.7c0,0.36,0,.76,0,1.17a8.51,8.51,0,0,0,2.2-1.05,15.33,15.33,0,0,0-1.41-.93l0.83-.71a10.76,10.76,0,0,1,1.53.93,6.17,6.17,0,0,0,1.08-1.24H586v-1.1h3.8l0.24-.05,0.85,0.37a7.64,7.64,0,0,1-2.32,3.12h1.56v2.95a1.84,1.84,0,0,0,1.05-1.78v-1.19h2.9a8.49,8.49,0,0,1-2.59-3.56l1.19-.29a5.54,5.54,0,0,0,.71,1.27,12.09,12.09,0,0,0,1.46-1.08l1,0.63a13.37,13.37,0,0,1-1.85,1.22,8,8,0,0,0,.8.71,15.81,15.81,0,0,0,1.63-1.12Zm-1.1,5.73a6,6,0,0,1-1.48,2.46c0.71,0.42,1.37.83,1.85,1.19l-0.86.95a18.6,18.6,0,0,0-2-1.32,9.78,9.78,0,0,1-3.36,1.42,4.29,4.29,0,0,0-.64-1.05,9.4,9.4,0,0,0,2.86-1c-0.76-.42-1.54-0.83-2.24-1.17l0.59-.63h-0.58v-1.05h4.83l0.2-.05Zm-4.59.83c0.64,0.32,1.36.66,2.05,1.05a5.8,5.8,0,0,0,.88-1.05h-2.93Z" transform="translate(-552.62 -4849.36)" fill="#c99664"/><path d="M604,4879a24.45,24.45,0,0,0-1-2.29V4885h-1.42v-7.42a17.17,17.17,0,0,1-1.7,4.07,8.42,8.42,0,0,0-.76-1.58,19,19,0,0,0,2.36-6h-2v-1.46h2.07v-3.2H603v3.2h1.83v1.44H603v0.51c0.44,0.66,1.7,2.8,2,3.31Zm6.51,2.37c1.39,0.71,3.34,1.76,4.36,2.44l-1,1.12c-1-.68-2.93-1.81-4.36-2.58l0.93-1h-0.7c-0.66,1.73-2,2.92-5,3.65a5.12,5.12,0,0,0-.83-1.27c2.34-.47,3.49-1.25,4.12-2.37h-3.64V4880h4.12a8.73,8.73,0,0,0,.2-1.22h-3.34v-5.36h8.32v5.36h-3.42a12.24,12.24,0,0,1-.19,1.22h4.37v1.32h-4Zm-3.9-9.34h-1.92v-1.29h1.92v-1.29H608v1.29h1.29V4872H608v1.07h-1.41V4872Zm0.27,3.58h5.32v-1h-5.32v1Zm0,2.09h5.32v-1h-5.32v1Zm4.22-5.68H609.8v-1.29h1.31v-1.27h1.41v1.27h2.15V4872h-2.15v1.08H611.1V4872Z" transform="translate(-552.62 -4849.36)" fill="#c99664"/><path d="M621.7,4879.75c-0.05-.27-0.12-0.59-0.22-0.95-3.8.56-4.39,0.7-4.75,0.9a14.56,14.56,0,0,0-.49-1.44,3.58,3.58,0,0,0,1.32-1.1,17.21,17.21,0,0,0,1.34-1.7,8.44,8.44,0,0,0-2.29.39c-0.08-.29-0.3-1-0.47-1.37a2.08,2.08,0,0,0,1-.92,22.29,22.29,0,0,0,2.27-4.22l1.41,0.59a26,26,0,0,1-2.59,4.29l1.64-.14a19.72,19.72,0,0,0,1.27-2.17l1.34,0.81a32.34,32.34,0,0,1-3.83,5.19l2.51-.32c-0.14-.49-0.3-1-0.47-1.44l1.19-.36a23.81,23.81,0,0,1,1.1,3.51Zm-3.48.81a18.74,18.74,0,0,1-.8,4.1,9.85,9.85,0,0,0-1.25-.46,17.35,17.35,0,0,0,.75-3.88Zm2-.29c0.2,1.15.41,2.63,0.47,3.63l-1.29.27a30.5,30.5,0,0,0-.42-3.66Zm1.83-.46a19.68,19.68,0,0,1,.85,2.78l-1.22.42a26.15,26.15,0,0,0-.78-2.85Zm9.7,3.42v1.42h-9.46v-1.42h1.41v-13h7v13h1.1Zm-6.61-11.53v2.83h4v-2.83h-4Zm4,4.24h-4v2.9h4V4876Zm-4,7.29h4v-3h-4v3Z" transform="translate(-552.62 -4849.36)" fill="#c99664"/><path d="M554.23,4905.53a52.77,52.77,0,0,0,105.53.08,48.85,48.85,0,0,0-.93-9.61H555.17A48,48,0,0,0,554.23,4905.53Z" transform="translate(-552.62 -4849.36)" fill="#c99664"/></svg>